<svg xmlns="http://www.w3.org/2000/svg" xmlns:xlink="http://www.w3.org/1999/xlink" viewBox="0 0 504 242.84"><defs><style>.cls-1{fill:#e6e7e8;}.cls-2{fill:#fff;}.cls-3{fill:url(#linear-gradient);}.cls-4{fill:url(#linear-gradient-2);}.cls-5{fill:url(#linear-gradient-3);}.cls-6{fill:url(#linear-gradient-4);}.cls-7{fill:url(#linear-gradient-5);}.cls-8{fill:url(#linear-gradient-6);}.cls-9{fill:url(#linear-gradient-7);}.cls-10{fill:url(#linear-gradient-8);}.cls-11{fill:url(#linear-gradient-9);}.cls-12{fill:none;stroke:#939598;stroke-linejoin:round;stroke-width:0.5px;}.cls-13{fill:#58595b;}.cls-14{fill:#231f20;}.cls-15,.cls-17{fill:#ed9c21;}.cls-15{fill-rule:evenodd;}.cls-16{fill:#544587;}</style><linearGradient id="linear-gradient" x1="60.5" y1="148.87" x2="84.75" y2="148.87" gradientUnits="userSpaceOnUse"><stop offset="0" stop-color="#d1d3d4"/><stop offset="1" stop-color="#fff"/></linearGradient><linearGradient id="linear-gradient-2" x1="113.59" y1="163.55" x2="137.84" y2="163.55" xlink:href="#linear-gradient"/><linearGradient id="linear-gradient-3" x1="166.67" y1="163.2" x2="190.92" y2="163.2" xlink:href="#linear-gradient"/><linearGradient id="linear-gradient-4" x1="219.92" y1="158.27" x2="244.17" y2="158.27" xlink:href="#linear-gradient"/><linearGradient id="linear-gradient-5" x1="273.06" y1="156.18" x2="297.31" y2="156.18" xlink:href="#linear-gradient"/><linearGradient id="linear-gradient-6" x1="326.26" y1="154.6" x2="350.51" y2="154.6" xlink:href="#linear-gradient"/><linearGradient id="linear-gradient-7" x1="379.4" y1="153.46" x2="403.65" y2="153.46" xlink:href="#linear-gradient"/><linearGradient id="linear-gradient-8" x1="432.47" y1="144.79" x2="456.72" y2="144.79" xlink:href="#linear-gradient"/><linearGradient id="linear-gradient-9" x1="483.44" y1="143.56" x2="494.89" y2="143.56" xlink:href="#linear-gradient"/></defs><title>PRIMER-Figure-A</title><g id="Background"><rect id="Gray_Box" data-name="Gray Box" class="cls-1" y="35.84" width="504" height="207" rx="12" ry="12"/><rect id="White_Box" data-name="White Box" class="cls-2" x="26.05" y="57.68" width="469.37" height="149.31"/><polygon id="Shadow" class="cls-3" points="85.88 206.99 56.41 206.99 56.41 93.83 63.67 90.75 85.88 100.34 85.88 206.99"/><polygon id="Shadow-2" data-name="Shadow" class="cls-4" points="138.97 206.99 109.5 206.99 109.5 123.18 116.79 120.11 138.97 127.54 138.97 206.99"/><polygon id="Shadow-3" data-name="Shadow" class="cls-5" points="192.05 206.99 162.58 206.99 162.58 122.48 169.84 119.41 192.05 129 192.05 206.99"/><polygon id="Shadow-4" data-name="Shadow" class="cls-6" points="245.3 206.83 215.83 206.83 215.83 112.8 223.09 109.72 245.3 119.31 245.3 206.83"/><polygon id="Shadow-5" data-name="Shadow" class="cls-7" points="298.44 206.99 268.97 206.99 268.97 108.45 276.23 105.38 298.44 114.97 298.44 206.99"/><polygon id="Shadow-6" data-name="Shadow" class="cls-8" points="351.64 206.99 322.17 206.99 322.17 105.3 329.43 102.22 351.64 111.81 351.64 206.99"/><polygon id="Shadow-7" data-name="Shadow" class="cls-9" points="404.78 206.99 375.31 206.99 375.31 103.02 382.57 99.94 404.78 109.53 404.78 206.99"/><polygon id="Shadow-8" data-name="Shadow" class="cls-10" points="457.85 206.99 428.38 206.99 428.38 85.67 435.64 82.59 457.85 92.19 457.85 206.99"/><polygon id="Shadow-9" data-name="Shadow" class="cls-11" points="495.42 206.99 481.51 206.99 481.51 83.2 488.77 80.13 495.42 82.59 495.42 206.99"/></g><g id="Layer_1" data-name="Layer 1"><g id="Rules"><path id="Rules-2" data-name="Rules" class="cls-12" d="M98,341.22H567.42M98,326.3H567.42M98,311.38H567.42M98,296.46H567.42M98,281.54H567.42M98,266.62H567.42M98,251.69H567.42M98,236.68H567.42M98,221.76H567.42M98,206.84H567.42" transform="translate(-72 -149.16)"/><line class="cls-12" x1="26.05" y1="206.99" x2="495.42" y2="206.99"/></g><g id="Numbers"><path class="cls-13" d="M114.89,225.89c0,1.43-1.17,2.12-2.72,2.12s-2.5-.64-2.5-1.9a2.37,2.37,0,0,1,1-1.88,1.78,1.78,0,0,1-.81-1.51c0-1.34,1-2,2.41-2s2.29.66,2.29,1.76a2.35,2.35,0,0,1-.87,1.71A1.93,1.93,0,0,1,114.89,225.89Zm-3.84.13c0,.56.39.89,1.14.89s1-.36,1-.84c0-.67-.75-.95-1.44-1.29A1.77,1.77,0,0,0,111.05,226Zm2.16-3.51c0-.51-.34-.75-.88-.75s-.84.3-.84.71.51.83,1.14,1.13A1.64,1.64,0,0,0,113.21,222.51Z" transform="translate(-72 -149.16)"/><path class="cls-13" d="M115.6,227.88v-1l1.47-1.44c1.11-1.08,1.58-1.52,1.58-2.15,0-.41-.2-.7-.78-.7s-.86.2-.86,1l-1.5-.13c0-1.75,1.34-2,2.5-2,1.71,0,2.31.73,2.31,1.76s-.71,1.72-1.52,2.49l-1.24,1.19h1.62c.11,0,.15,0,.18-.13l.15-.87h1.17v2.07Z" transform="translate(-72 -149.16)"/><path class="cls-13" d="M121.37,223.12a1.8,1.8,0,0,1,1.94-2.06c1.32,0,1.84.75,1.84,1.91a1.83,1.83,0,0,1-1.93,2.08A1.7,1.7,0,0,1,121.37,223.12Zm2.53-.1c0-.69-.17-1-.62-1s-.65.38-.65,1.07.18,1.11.64,1.11S123.9,223.79,123.9,223Zm-.86,5,4.15-7h1.52l-4.14,7Zm3.62-2A1.8,1.8,0,0,1,128.6,224c1.32,0,1.84.75,1.84,1.91a1.83,1.83,0,0,1-1.93,2.08A1.7,1.7,0,0,1,126.66,226.07Zm2.52-.1c0-.69-.15-1-.62-1s-.64.38-.64,1.07.17,1.11.63,1.11S129.18,226.75,129.18,226Z" transform="translate(-72 -149.16)"/><path class="cls-13" d="M166.54,252.09c0-.67-.21-.87-.78-.87-.95,0-1.2,1-1.23,2.06a3,3,0,0,1,1.54-.43,2,2,0,0,1,2.15,2.12c0,1.72-1.12,2.45-2.64,2.45-2.13,0-2.74-1.57-2.74-3.62,0-1.56.58-3.72,3-3.72,1,0,2.3.27,2.3,1.82Zm-.94,4.13c.68,0,.92-.53.92-1.17s-.23-1-.89-1a2.33,2.33,0,0,0-1.11.35C164.56,255.26,164.69,256.21,165.6,256.21Z" transform="translate(-72 -149.16)"/><path class="cls-13" d="M172.46,254.37a1.55,1.55,0,0,1,1.45,1.69c0,1.45-1.09,2.13-2.66,2.13a3.63,3.63,0,0,1-2.66-1l.88-1a2.19,2.19,0,0,0,1.65.73c.62,0,1.14-.22,1.14-1s-.42-.95-1.1-.95a4.47,4.47,0,0,0-.81.08V254l.54-.07c.79-.1,1.22-.48,1.22-1.19,0-.42-.19-.76-.8-.76s-.88.2-.88,1l-1.51-.13c0-1.74,1.31-2,2.46-2,1.69,0,2.34.65,2.34,1.83a1.72,1.72,0,0,1-1.27,1.72Z" transform="translate(-72 -149.16)"/><path class="cls-13" d="M174.63,252.53a1.8,1.8,0,0,1,1.94-2.06c1.32,0,1.84.75,1.84,1.91a1.83,1.83,0,0,1-1.93,2.08A1.7,1.7,0,0,1,174.63,252.53Zm2.53-.1c0-.69-.17-1-.62-1s-.65.38-.65,1.07.18,1.11.64,1.11S177.16,253.2,177.16,252.43Zm-.86,5,4.15-7H182l-4.14,7Zm3.62-2a1.8,1.8,0,0,1,1.94-2.06c1.32,0,1.84.75,1.84,1.91a1.83,1.83,0,0,1-1.93,2.08A1.7,1.7,0,0,1,179.92,255.48Zm2.52-.1c0-.69-.15-1-.62-1s-.64.38-.64,1.07.17,1.11.63,1.11S182.44,256.16,182.44,255.39Z" transform="translate(-72 -149.16)"/><path class="cls-13" d="M219.68,251.34c0-.67-.21-.87-.78-.87-.95,0-1.2,1-1.23,2.06a3,3,0,0,1,1.54-.43,2,2,0,0,1,2.15,2.12c0,1.72-1.12,2.45-2.64,2.45-2.13,0-2.74-1.57-2.74-3.62,0-1.56.58-3.72,3-3.72,1,0,2.3.27,2.3,1.82Zm-.94,4.13c.68,0,.92-.53.92-1.17s-.23-1-.89-1a2.33,2.33,0,0,0-1.11.35C217.7,254.52,217.83,255.46,218.74,255.46Z" transform="translate(-72 -149.16)"/><path class="cls-13" d="M225.6,253.63a1.55,1.55,0,0,1,1.45,1.69c0,1.45-1.09,2.13-2.66,2.13a3.63,3.63,0,0,1-2.66-1l.88-1a2.19,2.19,0,0,0,1.65.73c.62,0,1.14-.22,1.14-1s-.42-.95-1.1-.95a4.47,4.47,0,0,0-.81.08v-1.1l.54-.07c.79-.1,1.22-.48,1.22-1.19,0-.42-.19-.76-.8-.76s-.88.2-.88,1l-1.51-.13c0-1.74,1.31-2,2.46-2,1.69,0,2.34.65,2.34,1.83a1.72,1.72,0,0,1-1.27,1.72Z" transform="translate(-72 -149.16)"/><path class="cls-13" d="M227.77,251.78a1.8,1.8,0,0,1,1.94-2.06c1.32,0,1.84.75,1.84,1.91a1.83,1.83,0,0,1-1.93,2.08A1.7,1.7,0,0,1,227.77,251.78Zm2.53-.1c0-.69-.17-1-.62-1s-.65.38-.65,1.07.18,1.11.64,1.11S230.31,252.45,230.31,251.68Zm-.86,5,4.15-7h1.52l-4.14,7Zm3.62-2a1.8,1.8,0,0,1,1.94-2.06c1.32,0,1.84.75,1.84,1.91a1.83,1.83,0,0,1-1.93,2.08A1.7,1.7,0,0,1,233.07,254.74Zm2.52-.1c0-.69-.15-1-.62-1s-.64.38-.64,1.07.17,1.11.63,1.11S235.59,255.41,235.59,254.64Z" transform="translate(-72 -149.16)"/><path class="cls-13" d="M270,247.58a9.61,9.61,0,0,1,2.4-5.69h-2.1c-.11,0-.12,0-.14.14L270,243l-1.15.09V240.5h5.31v1.24a9.33,9.33,0,0,0-2.39,5.83Z" transform="translate(-72 -149.16)"/><path class="cls-13" d="M274.64,243.65c0-2,.79-3.31,3-3.31s2.82,1.31,2.82,3.22-.75,3.41-2.95,3.41S274.64,245.63,274.64,243.65Zm4,0c0-1.51-.28-2.09-1.09-2.09s-1.17.59-1.17,2.13.27,2.12,1.13,2.12S278.67,245.17,278.67,243.63Z" transform="translate(-72 -149.16)"/><path class="cls-13" d="M281.2,242.08a1.8,1.8,0,0,1,1.94-2.06c1.32,0,1.84.75,1.84,1.91A1.83,1.83,0,0,1,283,244,1.7,1.7,0,0,1,281.2,242.08Zm2.53-.1c0-.69-.17-1-.62-1s-.65.38-.65,1.07.18,1.11.64,1.11S283.73,242.75,283.73,242Zm-.86,5,4.15-7h1.52l-4.14,7Zm3.62-2a1.8,1.8,0,0,1,1.94-2.06c1.32,0,1.84.75,1.84,1.91a1.83,1.83,0,0,1-1.93,2.08A1.7,1.7,0,0,1,286.49,245Zm2.52-.1c0-.69-.15-1-.62-1s-.64.38-.64,1.07.17,1.11.63,1.11S289,245.71,289,244.94Z" transform="translate(-72 -149.16)"/><path class="cls-13" d="M323.59,243.25a9.61,9.61,0,0,1,2.4-5.69h-2.1c-.11,0-.12,0-.14.14l-.18.92-1.16.09v-2.54h5.31v1.24a9.33,9.33,0,0,0-2.39,5.83Z" transform="translate(-72 -149.16)"/><path class="cls-13" d="M331.72,239.6a1.55,1.55,0,0,1,1.45,1.69c0,1.45-1.09,2.13-2.66,2.13a3.63,3.63,0,0,1-2.66-1l.88-1a2.19,2.19,0,0,0,1.65.73c.62,0,1.14-.22,1.14-1s-.42-.95-1.1-.95a4.48,4.48,0,0,0-.81.08v-1.1l.54-.07c.79-.1,1.22-.48,1.22-1.19,0-.42-.19-.76-.8-.76s-.88.2-.88,1l-1.51-.13c0-1.74,1.31-2,2.46-2,1.69,0,2.34.65,2.34,1.83a1.72,1.72,0,0,1-1.26,1.72Z" transform="translate(-72 -149.16)"/><path class="cls-13" d="M333.9,237.75a1.8,1.8,0,0,1,1.94-2.06c1.32,0,1.84.75,1.84,1.91a1.83,1.83,0,0,1-1.93,2.08A1.7,1.7,0,0,1,333.9,237.75Zm2.53-.1c0-.69-.17-1-.62-1s-.65.38-.65,1.07.18,1.11.64,1.11S336.43,238.42,336.43,237.65Zm-.86,5,4.15-7h1.52l-4.14,7Zm3.62-2a1.8,1.8,0,0,1,1.94-2.06c1.32,0,1.84.75,1.84,1.91a1.83,1.83,0,0,1-1.92,2.08A1.7,1.7,0,0,1,339.19,240.71Zm2.52-.1c0-.69-.15-1-.62-1s-.64.38-.64,1.07.17,1.11.63,1.11S341.71,241.38,341.71,240.61Z" transform="translate(-72 -149.16)"/><path class="cls-13" d="M376.61,240.11a9.61,9.61,0,0,1,2.4-5.69h-2.1c-.11,0-.12,0-.14.14l-.18.92-1.16.09V233h5.31v1.24a9.33,9.33,0,0,0-2.39,5.83Z" transform="translate(-72 -149.16)"/><path class="cls-13" d="M383,234.42l-.15,1.51a2.56,2.56,0,0,1,1.4-.37,2,2,0,0,1,2.12,2.24,2.45,2.45,0,0,1-2.71,2.49,3.73,3.73,0,0,1-2.77-1l.88-1a2.35,2.35,0,0,0,1.75.75,1.1,1.1,0,0,0,1.19-1.17.94.94,0,0,0-1-1.07,1.44,1.44,0,0,0-1.06.47l-1.09-.45.24-3.77h2.87c.1,0,.12-.06.14-.13l.14-.61,1-.07v2.19Z" transform="translate(-72 -149.16)"/><path class="cls-13" d="M387.17,234.61a1.8,1.8,0,0,1,1.94-2.06c1.32,0,1.84.75,1.84,1.91a1.83,1.83,0,0,1-1.93,2.08A1.7,1.7,0,0,1,387.17,234.61Zm2.53-.1c0-.69-.17-1-.62-1s-.65.38-.65,1.07.18,1.11.64,1.11S389.7,235.28,389.7,234.51Zm-.86,5,4.15-7h1.52l-4.14,7Zm3.62-2a1.8,1.8,0,0,1,1.94-2.06c1.32,0,1.84.75,1.84,1.91a1.83,1.83,0,0,1-1.92,2.08A1.7,1.7,0,0,1,392.46,237.57Zm2.52-.1c0-.69-.15-1-.62-1s-.64.38-.64,1.07.17,1.11.63,1.11S395,238.24,395,237.47Z" transform="translate(-72 -149.16)"/><path class="cls-13" d="M429.63,237.57a9.61,9.61,0,0,1,2.4-5.69h-2.1c-.11,0-.12,0-.14.14l-.18.92-1.16.09V230.5h5.31v1.24a9.33,9.33,0,0,0-2.39,5.83Z" transform="translate(-72 -149.16)"/><path class="cls-13" d="M438.05,231.63c0-.67-.21-.87-.78-.87-.95,0-1.2,1-1.23,2.06a3,3,0,0,1,1.54-.43,1.94,1.94,0,0,1,2.14,2.12c0,1.72-1.12,2.45-2.64,2.45-2.13,0-2.74-1.57-2.74-3.62,0-1.56.58-3.72,3-3.72,1,0,2.3.27,2.3,1.82Zm-.94,4.13c.68,0,.92-.53.92-1.17s-.23-1-.89-1a2.33,2.33,0,0,0-1.11.35C436.07,234.81,436.21,235.76,437.12,235.76Z" transform="translate(-72 -149.16)"/><path class="cls-13" d="M440.44,232.07a1.8,1.8,0,0,1,1.94-2.06c1.32,0,1.84.75,1.84,1.91a1.83,1.83,0,0,1-1.93,2.08A1.7,1.7,0,0,1,440.44,232.07ZM443,232c0-.69-.17-1-.62-1s-.65.38-.65,1.07.18,1.11.64,1.11S443,232.74,443,232Zm-.86,5,4.15-7h1.52l-4.14,7Zm3.62-2a1.8,1.8,0,0,1,1.94-2.06c1.32,0,1.84.75,1.84,1.91a1.83,1.83,0,0,1-1.92,2.08A1.7,1.7,0,0,1,445.73,235Zm2.52-.1c0-.69-.15-1-.62-1s-.64.38-.64,1.07.17,1.11.63,1.11S448.25,235.7,448.25,234.93Z" transform="translate(-72 -149.16)"/><path class="cls-13" d="M486.85,217.82c0,1.43-1.17,2.12-2.72,2.12s-2.5-.64-2.5-1.9a2.37,2.37,0,0,1,1-1.88,1.78,1.78,0,0,1-.81-1.51c0-1.34,1-2,2.41-2s2.29.66,2.29,1.76a2.35,2.35,0,0,1-.87,1.71A1.93,1.93,0,0,1,486.85,217.82ZM483,218c0,.56.38.89,1.14.89s1-.36,1-.84c0-.67-.75-.95-1.44-1.29A1.77,1.77,0,0,0,483,218Zm2.16-3.51c0-.51-.34-.75-.88-.75s-.84.3-.84.71.51.83,1.14,1.13A1.64,1.64,0,0,0,485.17,214.44Z" transform="translate(-72 -149.16)"/><path class="cls-13" d="M492.79,217.82c0,1.43-1.17,2.12-2.72,2.12s-2.5-.64-2.5-1.9a2.37,2.37,0,0,1,1-1.88,1.78,1.78,0,0,1-.81-1.51c0-1.34,1-2,2.41-2s2.29.66,2.29,1.76a2.35,2.35,0,0,1-.87,1.71A1.93,1.93,0,0,1,492.79,217.82Zm-3.84.13c0,.56.38.89,1.14.89s1-.36,1-.84c0-.67-.75-.95-1.44-1.29A1.77,1.77,0,0,0,488.95,218Zm2.16-3.51c0-.51-.34-.75-.88-.75s-.84.3-.84.71.51.83,1.14,1.13A1.64,1.64,0,0,0,491.1,214.44Z" transform="translate(-72 -149.16)"/><path class="cls-13" d="M493.5,215a1.8,1.8,0,0,1,1.94-2.06c1.32,0,1.84.75,1.84,1.91a1.83,1.83,0,0,1-1.93,2.08A1.7,1.7,0,0,1,493.5,215Zm2.53-.1c0-.69-.17-1-.62-1s-.65.38-.65,1.07.18,1.11.64,1.11S496,215.72,496,214.95Zm-.86,5,4.15-7h1.52l-4.14,7Zm3.62-2a1.8,1.8,0,0,1,1.94-2.06c1.32,0,1.84.75,1.84,1.91a1.83,1.83,0,0,1-1.92,2.08A1.7,1.7,0,0,1,498.79,218Zm2.52-.1c0-.69-.15-1-.62-1s-.64.38-.64,1.07.17,1.11.63,1.11S501.31,218.68,501.31,217.91Z" transform="translate(-72 -149.16)"/><path class="cls-13" d="M539.83,215.29c0,1.43-1.17,2.12-2.72,2.12s-2.5-.64-2.5-1.9a2.37,2.37,0,0,1,1-1.88,1.78,1.78,0,0,1-.81-1.51c0-1.34,1-2,2.41-2s2.29.66,2.29,1.76a2.35,2.35,0,0,1-.87,1.71A1.93,1.93,0,0,1,539.83,215.29Zm-3.84.13c0,.56.38.89,1.14.89s1-.36,1-.84c0-.67-.75-.95-1.44-1.29A1.77,1.77,0,0,0,536,215.42Zm2.16-3.51c0-.51-.34-.75-.88-.75s-.84.3-.84.71.51.83,1.14,1.13A1.64,1.64,0,0,0,538.14,211.91Z" transform="translate(-72 -149.16)"/><path class="cls-13" d="M541.47,216.37A2.47,2.47,0,0,0,543,217c1,0,1.28-.83,1.31-1.84a2.75,2.75,0,0,1-1.54.42,2.09,2.09,0,0,1-2.14-2.31,2.32,2.32,0,0,1,2.61-2.45c2.16,0,2.78,1.55,2.78,3.54s-.53,3.86-2.94,3.86a3.49,3.49,0,0,1-2.31-.8Zm1.75-4.39c-.7,0-.91.56-.91,1.17,0,.78.22,1.19.88,1.19a1.91,1.91,0,0,0,1.12-.4C544.27,213,544.13,212,543.22,212Z" transform="translate(-72 -149.16)"/><path class="cls-13" d="M546.81,212.51a1.8,1.8,0,0,1,1.94-2.06c1.32,0,1.84.75,1.84,1.91a1.83,1.83,0,0,1-1.93,2.08A1.7,1.7,0,0,1,546.81,212.51Zm2.53-.1c0-.69-.17-1-.62-1s-.65.38-.65,1.07.18,1.11.64,1.11S549.34,213.19,549.34,212.42Zm-.86,5,4.15-7h1.52l-4.14,7Zm3.62-2a1.8,1.8,0,0,1,1.94-2.06c1.32,0,1.84.75,1.84,1.91a1.83,1.83,0,0,1-1.92,2.08A1.7,1.7,0,0,1,552.1,215.47Zm2.52-.1c0-.69-.15-1-.62-1s-.64.38-.64,1.07.17,1.11.63,1.11S554.62,216.15,554.62,215.38Z" transform="translate(-72 -149.16)"/></g><g id="Y-axis"><path class="cls-14" d="M88.66,355.33v1.36c0,1.18,0,2.56-1.6,2.56s-1.6-1.38-1.6-2.56v-1.36c0-1.18,0-2.56,1.6-2.56S88.66,354.15,88.66,355.33ZM86,357.24c0,1.41.62,1.52,1,1.52s1-.11,1-1.52v-2.46c0-1.41-.62-1.52-1-1.52s-1,.11-1,1.52Z" transform="translate(-72 -149.16)"/><path class="cls-14" d="M89.73,354.46c0-.81.15-1.69,1.17-1.69s1.17.74,1.17,1.53S91.94,356,90.9,356,89.73,355.28,89.73,354.46Zm1.87-.05c0-.49-.07-1.21-.7-1.21s-.7.72-.7,1.21,0,1.21.7,1.21S91.6,354.89,91.6,354.41Zm-.66,5.09,2.74-6.85h.41l-2.74,6.85Zm2.1-1.84c0-.81.15-1.69,1.17-1.69s1.17.74,1.17,1.53-.14,1.75-1.17,1.75S93,358.48,93,357.66Zm1.87-.05c0-.49-.07-1.21-.7-1.21s-.7.72-.7,1.21,0,1.21.7,1.21S94.92,358.08,94.92,357.6Z" transform="translate(-72 -149.16)"/><path class="cls-14" d="M84.61,329.28h-3.2v-.5c1.4-2.16,2.61-3.6,2.61-4.44s-.53-.95-1-.95a1,1,0,0,0-1,1.14h-.54A1.47,1.47,0,0,1,83,322.9c.73,0,1.6.23,1.6,1.31,0,.92-.46,1.43-2.56,4.58h2.57Z" transform="translate(-72 -149.16)"/><path class="cls-14" d="M88.66,325.46v1.36c0,1.18,0,2.56-1.6,2.56s-1.6-1.38-1.6-2.56v-1.36c0-1.18,0-2.56,1.6-2.56S88.66,324.28,88.66,325.46ZM86,327.37c0,1.41.62,1.52,1,1.52s1-.11,1-1.52v-2.46c0-1.41-.62-1.52-1-1.52s-1,.11-1,1.52Z" transform="translate(-72 -149.16)"/><path class="cls-14" d="M89.73,324.6c0-.81.15-1.69,1.17-1.69s1.17.74,1.17,1.53-.14,1.75-1.17,1.75S89.73,325.42,89.73,324.6Zm1.87-.05c0-.49-.07-1.21-.7-1.21s-.7.72-.7,1.21,0,1.21.7,1.21S91.6,325,91.6,324.54Zm-.66,5.09,2.74-6.85h.41l-2.74,6.85Zm2.1-1.84c0-.81.15-1.69,1.17-1.69s1.17.74,1.17,1.53-.14,1.75-1.17,1.75S93,328.61,93,327.79Zm1.87-.05c0-.49-.07-1.21-.7-1.21s-.7.72-.7,1.21,0,1.21.7,1.21S94.92,328.22,94.92,327.74Z" transform="translate(-72 -149.16)"/><path class="cls-14" d="M84.11,297.36h.74v.49h-.74v1.57h-.54v-1.57H81.32v-.52l1.94-4.19h.86Zm-.54,0v-3.68h0l-1.75,3.68Z" transform="translate(-72 -149.16)"/><path class="cls-14" d="M88.66,295.59V297c0,1.18,0,2.56-1.6,2.56s-1.6-1.38-1.6-2.56v-1.36c0-1.18,0-2.56,1.6-2.56S88.66,294.42,88.66,295.59ZM86,297.5c0,1.41.62,1.52,1,1.52s1-.11,1-1.52V295c0-1.41-.62-1.52-1-1.52s-1,.11-1,1.52Z" transform="translate(-72 -149.16)"/><path class="cls-14" d="M89.73,294.73c0-.81.15-1.69,1.17-1.69s1.17.74,1.17,1.53-.14,1.75-1.17,1.75S89.73,295.55,89.73,294.73Zm1.87-.05c0-.49-.07-1.21-.7-1.21s-.7.72-.7,1.21,0,1.21.7,1.21S91.6,295.15,91.6,294.68Zm-.66,5.09,2.74-6.85h.41l-2.74,6.85Zm2.1-1.84c0-.81.15-1.69,1.17-1.69s1.17.74,1.17,1.53-.14,1.75-1.17,1.75S93,298.75,93,297.93Zm1.87-.05c0-.49-.07-1.21-.7-1.21s-.7.72-.7,1.21,0,1.21.7,1.21S94.92,298.35,94.92,297.87Z" transform="translate(-72 -149.16)"/><path class="cls-14" d="M84,264.67c0-.62-.29-1-.92-1-1.08,0-1.1,1.13-1.1,2.08v.55h0a1.3,1.3,0,0,1,1.23-.68c1.5,0,1.4,1.58,1.4,1.77,0,1.22-.14,2.28-1.52,2.28-1.53,0-1.67-.89-1.67-2.14v-2.05c0-1.52.29-2.28,1.67-2.28,1,0,1.44.51,1.46,1.49Zm-.91,1.41c-.66,0-1.11.43-1.11,1.5,0,.05-.13,1.58,1.06,1.58,1,0,1-.88,1-1.63C84.09,266.56,83.85,266.09,83.12,266.09Z" transform="translate(-72 -149.16)"/><path class="cls-14" d="M88.66,265.73v1.36c0,1.18,0,2.56-1.6,2.56s-1.6-1.38-1.6-2.56v-1.36c0-1.18,0-2.56,1.6-2.56S88.66,264.56,88.66,265.73ZM86,267.64c0,1.41.62,1.52,1,1.52s1-.11,1-1.52v-2.46c0-1.41-.62-1.52-1-1.52s-1,.11-1,1.52Z" transform="translate(-72 -149.16)"/><path class="cls-14" d="M89.73,264.87c0-.81.15-1.69,1.17-1.69s1.17.74,1.17,1.53-.14,1.75-1.17,1.75S89.73,265.69,89.73,264.87Zm1.87-.05c0-.49-.07-1.21-.7-1.21s-.7.72-.7,1.21,0,1.21.7,1.21S91.6,265.29,91.6,264.82Zm-.66,5.09,2.74-6.85h.41l-2.74,6.85Zm2.1-1.84c0-.81.15-1.69,1.17-1.69s1.17.74,1.17,1.53-.14,1.75-1.17,1.75S93,268.89,93,268.07Zm1.87-.05c0-.49-.07-1.21-.7-1.21s-.7.72-.7,1.21,0,1.21.7,1.21S94.92,268.49,94.92,268Z" transform="translate(-72 -149.16)"/><path class="cls-14" d="M83.71,236.4c.85.19,1,.82,1,1.58s-.22,1.8-1.64,1.8-1.64-1-1.64-1.8.14-1.4,1-1.58l0,0c-.77-.16-.91-.79-.91-1.5s0-1.57,1.58-1.57,1.58,1,1.58,1.57-.14,1.34-.93,1.5Zm.41,1.66c0-.68-.07-1.43-1.06-1.43s-1.06.76-1.06,1.43.25,1.3,1.06,1.3S84.13,238.79,84.13,238.06Zm-.06-3.1c0-.74-.2-1.22-1-1.22s-1,.48-1,1.22.24,1.23,1,1.23S84.06,235.68,84.06,235Z" transform="translate(-72 -149.16)"/><path class="cls-14" d="M88.66,235.87v1.36c0,1.18,0,2.56-1.6,2.56s-1.6-1.38-1.6-2.56v-1.36c0-1.18,0-2.56,1.6-2.56S88.66,234.69,88.66,235.87ZM86,237.78c0,1.41.62,1.52,1,1.52s1-.11,1-1.52v-2.46c0-1.41-.62-1.52-1-1.52s-1,.11-1,1.52Z" transform="translate(-72 -149.16)"/><path class="cls-14" d="M89.73,235c0-.81.15-1.69,1.17-1.69s1.17.74,1.17,1.53-.14,1.75-1.17,1.75S89.73,235.82,89.73,235ZM91.6,235c0-.49-.07-1.21-.7-1.21s-.7.72-.7,1.21,0,1.21.7,1.21S91.6,235.43,91.6,235ZM90.95,240l2.74-6.85h.41L91.36,240ZM93,238.2c0-.81.15-1.69,1.17-1.69s1.17.74,1.17,1.53-.14,1.75-1.17,1.75S93,239,93,238.2Zm1.87-.05c0-.49-.07-1.21-.7-1.21s-.7.72-.7,1.21,0,1.21.7,1.21S94.92,238.62,94.92,238.15Z" transform="translate(-72 -149.16)"/><path class="cls-14" d="M77.87,204.54a5.39,5.39,0,0,0,1.13-1h.5v6.27H79v-5.55a8,8,0,0,1-1.1.88Z" transform="translate(-72 -149.16)"/><path class="cls-14" d="M84.67,206v1.36c0,1.18,0,2.56-1.6,2.56s-1.6-1.38-1.6-2.56V206c0-1.18,0-2.56,1.6-2.56S84.67,204.84,84.67,206ZM82,207.92c0,1.41.62,1.52,1,1.52s1-.11,1-1.52v-2.46c0-1.41-.62-1.52-1-1.52s-1,.11-1,1.52Z" transform="translate(-72 -149.16)"/><path class="cls-14" d="M88.66,206v1.36c0,1.18,0,2.56-1.6,2.56s-1.6-1.38-1.6-2.56V206c0-1.18,0-2.56,1.6-2.56S88.66,204.84,88.66,206ZM86,207.92c0,1.41.62,1.52,1,1.52s1-.11,1-1.52v-2.46c0-1.41-.62-1.52-1-1.52s-1,.11-1,1.52Z" transform="translate(-72 -149.16)"/><path class="cls-14" d="M89.73,205.15c0-.81.15-1.69,1.17-1.69s1.17.74,1.17,1.53-.14,1.75-1.17,1.75S89.73,206,89.73,205.15Zm1.87-.05c0-.49-.07-1.21-.7-1.21s-.7.72-.7,1.21,0,1.21.7,1.21S91.6,205.57,91.6,205.1Zm-.66,5.09,2.74-6.85h.41l-2.74,6.85Zm2.1-1.84c0-.81.15-1.69,1.17-1.69s1.17.74,1.17,1.53-.14,1.75-1.17,1.75S93,209.17,93,208.35Zm1.87-.05c0-.49-.07-1.21-.7-1.21s-.7.72-.7,1.21,0,1.21.7,1.21S94.92,208.77,94.92,208.29Z" transform="translate(-72 -149.16)"/></g><g id="X-axis"><path class="cls-14" d="M113.93,361.23h-1.58v-.49h3.75v.49H114.5v6h-.58Z" transform="translate(-72 -149.16)"/><path class="cls-14" d="M116.47,365.46v-1c0-1.18.5-1.87,1.57-1.87s1.57.69,1.57,1.87v1c0,1.18-.5,1.87-1.57,1.87S116.47,366.64,116.47,365.46Zm.54-.5c0,1.19.14,1.94,1,1.94s1-.75,1-1.94-.14-1.93-1-1.93S117,363.79,117,365Z" transform="translate(-72 -149.16)"/><path class="cls-14" d="M119.89,363.13v-.43h.73v-.94l.54-.23v1.17h.92v.43h-.92V366c0,.6.06.75.5.75a2.68,2.68,0,0,0,.42,0v.47l-.51,0c-.73,0-.95-.32-.95-.88v-3.25Z" transform="translate(-72 -149.16)"/><path class="cls-14" d="M124.92,366.69h0a1.46,1.46,0,0,1-1.29.65,1.2,1.2,0,0,1-1.25-1.34c0-1.59,1.6-1.43,2.52-1.5v-.38c0-.67-.2-1.07-.92-1.07-.5,0-.89.24-.89.78h-.58c0-.87.72-1.22,1.51-1.22.46,0,1.41,0,1.41,1.21v2.29a9.68,9.68,0,0,0,.05,1.14h-.56Zm0-1.76c-.77,0-1.94-.06-1.94,1,0,.51.26.94.82.94a1.17,1.17,0,0,0,1.13-1.15Z" transform="translate(-72 -149.16)"/><path class="cls-14" d="M126.52,367.25v-6.5h.54v6.5Z" transform="translate(-72 -149.16)"/><path class="cls-14" d="M150.78,367.25v-6.5h.58v6h2.15v.49Z" transform="translate(-72 -149.16)"/><path class="cls-14" d="M154.12,361.43v-.68h.67v.68Zm.06,5.82V362.7h.54v4.55Z" transform="translate(-72 -149.16)"/><path class="cls-14" d="M156.31,367.25h-.54v-4.56h.49v.57h0a1.22,1.22,0,0,1,1.08-.65,1.06,1.06,0,0,1,1,.71,1.2,1.2,0,0,1,1.12-.71,1.15,1.15,0,0,1,1.18,1.25v3.38h-.54V364c0-.45-.17-1-.7-1-.68,0-.95.68-.95,1.28v2.93H158V364c0-.45-.17-1-.7-1-.68,0-.94.68-.94,1.28Z" transform="translate(-72 -149.16)"/><path class="cls-14" d="M161.67,361.43v-.68h.67v.68Zm.06,5.82V362.7h.54v4.55Z" transform="translate(-72 -149.16)"/><path class="cls-14" d="M162.92,363.13v-.43h.73v-.94l.54-.23v1.17h.92v.43h-.92V366c0,.6.06.75.5.75a2.69,2.69,0,0,0,.42,0v.47l-.51,0c-.73,0-.95-.32-.95-.88v-3.25Z" transform="translate(-72 -149.16)"/><path class="cls-14" d="M166,365.08v.35c0,.63.17,1.47,1,1.47a.93.93,0,0,0,1-1h.57a1.38,1.38,0,0,1-1.57,1.48c-.78,0-1.57-.31-1.57-1.69v-1.12c0-1.31.55-1.92,1.57-1.92,1.57,0,1.57,1.13,1.57,2.48Zm2.05-.43c0-1-.16-1.61-1-1.61s-1,.6-1,1.61Z" transform="translate(-72 -149.16)"/><path class="cls-14" d="M171.76,366.67h0a1.27,1.27,0,0,1-1.15.66c-1.31,0-1.39-1.31-1.39-2.37,0-.87,0-2.36,1.4-2.36a1.4,1.4,0,0,1,1.1.54h0v-2.41h.54v5.6a5.73,5.73,0,0,0,.05.9h-.52Zm0-1.29v-.81c0-.27,0-1.53-1-1.53s-1,.88-1,1.94c0,1.69.4,1.92,1,1.92S171.73,366.49,171.73,365.38Z" transform="translate(-72 -149.16)"/><path class="cls-14" d="M178,360.75v.49h-2.37v2.43h2.26v.49h-2.26v2.61h2.43v.49h-3v-6.5Z" transform="translate(-72 -149.16)"/><path class="cls-14" d="M179.23,367.25h-.54V362.7h.54v.56h0a1.32,1.32,0,0,1,1.1-.65c1.13,0,1.24.84,1.24,1.43v3.21H181v-3.18c0-.53-.21-1-.84-1s-1,.33-1,1.35Z" transform="translate(-72 -149.16)"/><path class="cls-14" d="M184.84,362.69h.53c0,.43,0,.66,0,.89v3.83c0,1-.31,1.59-1.6,1.59a1.16,1.16,0,0,1-1.32-1.26H183a.77.77,0,0,0,.85.83c1.05,0,1-.57,1-1.93h0a1.24,1.24,0,0,1-1.1.55c-1.31,0-1.4-1.12-1.4-2.13a4.32,4.32,0,0,1,.14-1.55,1.28,1.28,0,0,1,1.28-.9,1.24,1.24,0,0,1,1.12.64l0,0Zm-2,2.18c0,.95,0,1.89,1,1.89a.88.88,0,0,0,.82-.51,4.66,4.66,0,0,0,.17-1.89c0-1-.51-1.31-1-1.31C182.85,363,182.83,364.19,182.83,364.87Z" transform="translate(-72 -149.16)"/><path class="cls-14" d="M186.41,367.25v-6.5H187v6.5Z" transform="translate(-72 -149.16)"/><path class="cls-14" d="M188.12,361.43v-.68h.67v.68Zm.06,5.82V362.7h.54v4.55Z" transform="translate(-72 -149.16)"/><path class="cls-14" d="M191,367.33c-1,0-1.37-.48-1.36-1.44h.55c0,.62.14,1,.84,1a.71.71,0,0,0,.77-.8c0-1.19-2-.88-2-2.39,0-.84.58-1.13,1.37-1.13s1.19.62,1.19,1.31h-.53c0-.58-.18-.88-.79-.88a.65.65,0,0,0-.69.66c0,1.13,2,.83,2,2.35A1.18,1.18,0,0,1,191,367.33Z" transform="translate(-72 -149.16)"/><path class="cls-14" d="M193.05,367.25v-6.5h.54v2.51h0a1.32,1.32,0,0,1,1.1-.65c1.13,0,1.24.84,1.24,1.43v3.21h-.54v-3.18c0-.53-.21-1-.84-1s-1,.33-1,1.35v2.85Z" transform="translate(-72 -149.16)"/><path class="cls-14" d="M157.44,371.54h1.78c.54,0,1.43.07,1.43,1.58,0,1.31-.42,1.9-1.54,1.9H158v3h-.58Zm.58,3h1.07c.6,0,1-.29,1-1.31s-.48-1.2-1-1.2H158Z" transform="translate(-72 -149.16)"/><path class="cls-14" d="M161.76,374.11h0a1.38,1.38,0,0,1,1.25-.7V374a1.09,1.09,0,0,0-1.27,1.16V378h-.54V373.5h.54Z" transform="translate(-72 -149.16)"/><path class="cls-14" d="M163.34,376.26v-1c0-1.18.5-1.87,1.57-1.87s1.57.69,1.57,1.87v1c0,1.18-.5,1.87-1.57,1.87S163.34,377.44,163.34,376.26Zm.54-.5c0,1.19.14,1.94,1,1.94s1-.75,1-1.94-.14-1.93-1-1.93S163.88,374.59,163.88,375.77Z" transform="translate(-72 -149.16)"/><path class="cls-14" d="M167.58,373.93h-.73v-.43h.73v-.77a1.05,1.05,0,0,1,1.16-1.22l.31,0V372h-.41c-.52,0-.52.47-.52.73v.77H169v.43h-.92V378h-.54Zm1.82-1.7v-.68h.67v.68Zm.06,5.82V373.5H170V378Z" transform="translate(-72 -149.16)"/><path class="cls-14" d="M173,374.8c0-.57-.18-1-.8-1a.75.75,0,0,0-.73.52,6.21,6.21,0,0,0-.13,1.43c0,.82,0,1.91.84,1.91s.8-.45.83-1h.54a1.21,1.21,0,0,1-1.24,1.43c-1.54,0-1.54-1.22-1.54-2.34a6,6,0,0,1,.13-1.5,1.31,1.31,0,0,1,1.37-.88,1.18,1.18,0,0,1,1.27,1.4Z" transform="translate(-72 -149.16)"/><path class="cls-14" d="M174.39,372.23v-.68h.67v.68Zm.06,5.82V373.5H175V378Z" transform="translate(-72 -149.16)"/><path class="cls-14" d="M176.47,375.88v.35c0,.63.17,1.47,1,1.47a.93.93,0,0,0,1-1h.57a1.38,1.38,0,0,1-1.57,1.48c-.78,0-1.57-.31-1.57-1.69v-1.12c0-1.31.55-1.92,1.57-1.92,1.57,0,1.57,1.13,1.57,2.48Zm2.05-.43c0-1-.16-1.61-1-1.61s-1,.6-1,1.61Z" transform="translate(-72 -149.16)"/><path class="cls-14" d="M180.36,378h-.54V373.5h.54v.56h0a1.31,1.31,0,0,1,1.1-.65c1.13,0,1.24.84,1.24,1.43V378h-.54v-3.18c0-.53-.21-1-.84-1s-1,.33-1,1.35Z" transform="translate(-72 -149.16)"/><path class="cls-14" d="M185.61,374.8c0-.57-.18-1-.8-1a.75.75,0,0,0-.73.52,6.21,6.21,0,0,0-.13,1.43c0,.82,0,1.91.84,1.91s.8-.45.83-1h.54a1.21,1.21,0,0,1-1.24,1.43c-1.54,0-1.54-1.22-1.54-2.34a6,6,0,0,1,.13-1.5,1.31,1.31,0,0,1,1.37-.88,1.18,1.18,0,0,1,1.27,1.4Z" transform="translate(-72 -149.16)"/><path class="cls-14" d="M187.85,378.05l-1.44-4.56H187l1.11,3.73h0l1.07-3.73h.54l-1.88,6.27h-.53Z" transform="translate(-72 -149.16)"/><path class="cls-14" d="M208.48,362.39c0-.8-.22-1.29-1.1-1.29-.7,0-1.14.24-1.14,1,0,1,.49,1,1.22,1.52s1.62.75,1.62,2a1.53,1.53,0,0,1-1.73,1.73c-1.27,0-1.84-.68-1.78-2h.59c0,.72.05,1.47,1.22,1.47a1,1,0,0,0,1.13-1.15c0-.88-.59-1.13-1.52-1.71-1.26-.77-1.31-1.16-1.32-1.81,0-1.12.7-1.59,1.76-1.59,1.35,0,1.64.84,1.64,1.77Z" transform="translate(-72 -149.16)"/><path class="cls-14" d="M209.5,363.13v-.43h.73v-.94l.54-.23v1.17h.92v.43h-.92V366c0,.6.06.75.5.75a2.69,2.69,0,0,0,.42,0v.47l-.51,0c-.73,0-.95-.32-.95-.88v-3.25Z" transform="translate(-72 -149.16)"/><path class="cls-14" d="M215,362.7v4.55h-.47v-.5h0a1.37,1.37,0,0,1-1.14.59c-.94,0-1.2-.68-1.2-1.42V362.7h.54v3.12c0,.13,0,1.08.76,1.08a1,1,0,0,0,1-1V362.7Z" transform="translate(-72 -149.16)"/><path class="cls-14" d="M218.33,366.67h0a1.27,1.27,0,0,1-1.15.66c-1.31,0-1.39-1.31-1.39-2.37,0-.87,0-2.36,1.4-2.36a1.4,1.4,0,0,1,1.1.54h0v-2.41h.54v5.6a5.73,5.73,0,0,0,.05.9h-.52Zm0-1.29v-.81c0-.27,0-1.53-1-1.53s-1,.88-1,1.94c0,1.69.4,1.92,1,1.92S218.31,366.49,218.31,365.38Z" transform="translate(-72 -149.16)"/><path class="cls-14" d="M220.14,365.08v.35c0,.63.17,1.47,1,1.47a.93.93,0,0,0,1-1h.57a1.38,1.38,0,0,1-1.57,1.48c-.78,0-1.57-.31-1.57-1.69v-1.12c0-1.31.55-1.92,1.57-1.92,1.57,0,1.57,1.13,1.57,2.48Zm2.05-.43c0-1-.16-1.61-1-1.61s-1,.6-1,1.61Z" transform="translate(-72 -149.16)"/><path class="cls-14" d="M224,367.25h-.54V362.7H224v.56h0a1.32,1.32,0,0,1,1.1-.65c1.13,0,1.24.84,1.24,1.43v3.21h-.54v-3.18c0-.53-.21-1-.84-1s-1,.33-1,1.35Z" transform="translate(-72 -149.16)"/><path class="cls-14" d="M226.86,363.13v-.43h.73v-.94l.54-.23v1.17H229v.43h-.92V366c0,.6.06.75.5.75a2.69,2.69,0,0,0,.42,0v.47l-.51,0c-.73,0-.95-.32-.95-.88v-3.25Z" transform="translate(-72 -149.16)"/><path class="cls-14" d="M230.74,367.33c-1,0-1.37-.48-1.36-1.44h.55c0,.62.14,1,.84,1a.71.71,0,0,0,.77-.8c0-1.19-2-.88-2-2.39,0-.84.58-1.13,1.37-1.13s1.19.62,1.19,1.31h-.53c0-.58-.18-.88-.79-.88a.65.65,0,0,0-.69.66c0,1.13,2,.83,2,2.35A1.18,1.18,0,0,1,230.74,367.33Z" transform="translate(-72 -149.16)"/><path class="cls-14" d="M234.13,362.7h.58l1,4h0l1-4h.67l1,4h0l1-4H240l-1.25,4.55H238l-1-3.89h0l-1,3.89h-.68Z" transform="translate(-72 -149.16)"/><path class="cls-14" d="M240.48,361.43v-.68h.67v.68Zm.06,5.82V362.7h.54v4.55Z" transform="translate(-72 -149.16)"/><path class="cls-14" d="M241.73,363.13v-.43h.73v-.94l.54-.23v1.17h.92v.43H243V366c0,.6.06.75.5.75a2.69,2.69,0,0,0,.42,0v.47l-.51,0c-.73,0-.95-.32-.95-.88v-3.25Z" transform="translate(-72 -149.16)"/><path class="cls-14" d="M244.42,367.25v-6.5H245v2.51h0a1.31,1.31,0,0,1,1.1-.65c1.13,0,1.24.84,1.24,1.43v3.21h-.54v-3.18c0-.53-.21-1-.84-1s-1,.33-1,1.35v2.85Z" transform="translate(-72 -149.16)"/><path class="cls-14" d="M210.14,371.54h1.72c1.82,0,2,1.06,2,3.28s-.32,3.22-2.28,3.22h-1.49Zm.58,6h.7c1.74,0,1.91-.47,1.91-3.12,0-1.86-.25-2.4-1.85-2.4h-.76Z" transform="translate(-72 -149.16)"/><path class="cls-14" d="M214.91,372.23v-.68h.67v.68ZM215,378V373.5h.54V378Z" transform="translate(-72 -149.16)"/><path class="cls-14" d="M217.77,378.13c-1,0-1.37-.48-1.36-1.44H217c0,.62.14,1,.84,1a.71.71,0,0,0,.77-.8c0-1.19-2-.88-2-2.39,0-.84.58-1.13,1.37-1.13s1.19.62,1.19,1.31h-.53c0-.58-.18-.88-.79-.88a.65.65,0,0,0-.69.66c0,1.13,2,.83,2,2.35A1.18,1.18,0,0,1,217.77,378.13Z" transform="translate(-72 -149.16)"/><path class="cls-14" d="M222.19,377.49h0a1.46,1.46,0,0,1-1.29.65,1.2,1.2,0,0,1-1.25-1.34c0-1.59,1.6-1.43,2.52-1.5v-.38c0-.67-.2-1.07-.92-1.07-.5,0-.89.24-.89.78h-.58c0-.87.72-1.22,1.51-1.22.46,0,1.41,0,1.41,1.21v2.29a9.68,9.68,0,0,0,.05,1.14h-.56Zm0-1.76c-.77,0-1.94-.06-1.94,1,0,.51.26.94.82.94a1.17,1.17,0,0,0,1.13-1.15Z" transform="translate(-72 -149.16)"/><path class="cls-14" d="M223.58,378a2.57,2.57,0,0,0,.05-.45v-6h.54V374l0,0a1.25,1.25,0,0,1,1.15-.62c1.48,0,1.36,1.55,1.36,2.36,0,1-.08,2.37-1.4,2.37a1.2,1.2,0,0,1-1.14-.64h0V378Zm1.56-.34c1,0,1-.85,1-1.92s0-1.94-1-1.94-1,1.18-1,1.86S224.15,377.7,225.13,377.7Z" transform="translate(-72 -149.16)"/><path class="cls-14" d="M227.5,372.23v-.68h.67v.68Zm.06,5.82V373.5h.54V378Z" transform="translate(-72 -149.16)"/><path class="cls-14" d="M229.34,378v-6.5h.54V378Z" transform="translate(-72 -149.16)"/><path class="cls-14" d="M231,372.23v-.68h.67v.68Zm.06,5.82V373.5h.54V378Z" transform="translate(-72 -149.16)"/><path class="cls-14" d="M232.3,373.93v-.43H233v-.94l.54-.23v1.17h.92v.43h-.92v2.92c0,.6.06.75.5.75a2.69,2.69,0,0,0,.42,0V378l-.51,0c-.73,0-.95-.32-.95-.88v-3.25Z" transform="translate(-72 -149.16)"/><path class="cls-14" d="M235.1,372.23v-.68h.67v.68Zm.06,5.82V373.5h.54V378Z" transform="translate(-72 -149.16)"/><path class="cls-14" d="M237.17,375.88v.35c0,.63.17,1.47,1,1.47a.93.93,0,0,0,1-1h.57a1.38,1.38,0,0,1-1.57,1.48c-.78,0-1.57-.31-1.57-1.69v-1.12c0-1.31.55-1.92,1.57-1.92,1.57,0,1.57,1.13,1.57,2.48Zm2.05-.43c0-1-.16-1.61-1-1.61s-1,.6-1,1.61Z" transform="translate(-72 -149.16)"/><path class="cls-14" d="M241.73,378.13c-1,0-1.37-.48-1.36-1.44h.55c0,.62.14,1,.84,1a.71.71,0,0,0,.77-.8c0-1.19-2-.88-2-2.39,0-.84.58-1.13,1.37-1.13s1.19.62,1.19,1.31h-.53c0-.58-.18-.88-.79-.88a.65.65,0,0,0-.69.66c0,1.13,2,.83,2,2.35A1.18,1.18,0,0,1,241.73,378.13Z" transform="translate(-72 -149.16)"/><path class="cls-14" d="M256.16,360.75l2,6.5h-.6l-.52-1.71h-2.55l-.51,1.71h-.58l2.05-6.5Zm.75,4.3-1.11-3.67h0l-1.1,3.67Z" transform="translate(-72 -149.16)"/><path class="cls-14" d="M259.16,367.25h-.54v-4.56h.49v.57h0a1.22,1.22,0,0,1,1.08-.65,1.06,1.06,0,0,1,1,.71,1.2,1.2,0,0,1,1.12-.71,1.15,1.15,0,0,1,1.18,1.25v3.38H263V364c0-.45-.17-1-.7-1-.68,0-.95.68-.95,1.28v2.93h-.54V364c0-.45-.17-1-.7-1-.68,0-.95.68-.95,1.28Z" transform="translate(-72 -149.16)"/><path class="cls-14" d="M264.83,365.08v.35c0,.63.17,1.47,1,1.47a.93.93,0,0,0,1-1h.57a1.38,1.38,0,0,1-1.57,1.48c-.78,0-1.57-.31-1.57-1.69v-1.12c0-1.31.55-1.92,1.57-1.92,1.57,0,1.57,1.13,1.57,2.48Zm2.05-.43c0-1-.16-1.61-1-1.61s-1,.6-1,1.61Z" transform="translate(-72 -149.16)"/><path class="cls-14" d="M268.76,363.31h0a1.38,1.38,0,0,1,1.25-.7v.55a1.09,1.09,0,0,0-1.27,1.16v2.93h-.54V362.7h.54Z" transform="translate(-72 -149.16)"/><path class="cls-14" d="M270.57,361.43v-.68h.67v.68Zm.06,5.82V362.7h.54v4.55Z" transform="translate(-72 -149.16)"/><path class="cls-14" d="M274.26,364c0-.57-.18-1-.8-1a.75.75,0,0,0-.73.52,6.21,6.21,0,0,0-.13,1.43c0,.82,0,1.91.84,1.91s.8-.45.83-1h.54a1.21,1.21,0,0,1-1.24,1.43c-1.54,0-1.54-1.22-1.54-2.34a6,6,0,0,1,.13-1.5,1.31,1.31,0,0,1,1.37-.88,1.18,1.18,0,0,1,1.27,1.4Z" transform="translate(-72 -149.16)"/><path class="cls-14" d="M277.86,366.69h0a1.46,1.46,0,0,1-1.29.65A1.2,1.2,0,0,1,275.3,366c0-1.59,1.6-1.43,2.52-1.5v-.38c0-.67-.2-1.07-.92-1.07-.5,0-.89.24-.89.78h-.58c0-.87.72-1.22,1.51-1.22.46,0,1.41,0,1.41,1.21v2.29a9.68,9.68,0,0,0,.05,1.14h-.56Zm0-1.76c-.77,0-1.94-.06-1.94,1,0,.51.26.94.82.94a1.17,1.17,0,0,0,1.13-1.15Z" transform="translate(-72 -149.16)"/><path class="cls-14" d="M279.82,367.25h-.54V362.7h.54v.56h0a1.31,1.31,0,0,1,1.1-.65c1.13,0,1.24.84,1.24,1.43v3.21h-.54v-3.18c0-.53-.21-1-.84-1s-1,.33-1,1.35Z" transform="translate(-72 -149.16)"/><path class="cls-14" d="M285.56,360.75v6.5H285v-6.5Z" transform="translate(-72 -149.16)"/><path class="cls-14" d="M287.13,367.25h-.54V362.7h.54v.56h0a1.32,1.32,0,0,1,1.1-.65c1.13,0,1.24.84,1.24,1.43v3.21H289v-3.18c0-.53-.21-1-.84-1s-1,.33-1,1.35Z" transform="translate(-72 -149.16)"/><path class="cls-14" d="M292.75,366.67h0a1.27,1.27,0,0,1-1.15.66c-1.31,0-1.39-1.31-1.39-2.37,0-.87,0-2.36,1.4-2.36a1.4,1.4,0,0,1,1.1.54h0v-2.41h.54v5.6a5.73,5.73,0,0,0,.05.9h-.52Zm0-1.29v-.81c0-.27,0-1.53-1-1.53s-1,.88-1,1.94c0,1.69.4,1.92,1,1.92S292.72,366.49,292.72,365.38Z" transform="translate(-72 -149.16)"/><path class="cls-14" d="M294.25,361.43v-.68h.67v.68Zm.06,5.82V362.7h.54v4.55Z" transform="translate(-72 -149.16)"/><path class="cls-14" d="M298.26,366.69h0a1.46,1.46,0,0,1-1.29.65A1.2,1.2,0,0,1,295.7,366c0-1.59,1.6-1.43,2.52-1.5v-.38c0-.67-.2-1.07-.92-1.07-.5,0-.89.24-.89.78h-.58c0-.87.72-1.22,1.51-1.22.46,0,1.41,0,1.41,1.21v2.29a9.68,9.68,0,0,0,.05,1.14h-.56Zm0-1.76c-.77,0-1.94-.06-1.94,1,0,.51.26.94.82.94a1.17,1.17,0,0,0,1.13-1.15Z" transform="translate(-72 -149.16)"/><path class="cls-14" d="M300.22,367.25h-.54V362.7h.54v.56h0a1.31,1.31,0,0,1,1.1-.65c1.13,0,1.24.84,1.24,1.43v3.21H302v-3.18c0-.53-.21-1-.84-1s-1,.33-1,1.35Z" transform="translate(-72 -149.16)"/><path class="cls-14" d="M302.87,368.24l2.56-7.49h.49l-2.57,7.49Z" transform="translate(-72 -149.16)"/><path class="cls-14" d="M261.06,371.54l2,6.5h-.6l-.52-1.71h-2.55L258.9,378h-.58l2.05-6.5Zm.75,4.3-1.11-3.67h0l-1.1,3.67Z" transform="translate(-72 -149.16)"/><path class="cls-14" d="M263.72,378v-6.5h.54V378Z" transform="translate(-72 -149.16)"/><path class="cls-14" d="M267.66,377.49h0a1.46,1.46,0,0,1-1.29.65,1.2,1.2,0,0,1-1.25-1.34c0-1.59,1.6-1.43,2.52-1.5v-.38c0-.67-.2-1.07-.92-1.07-.5,0-.89.24-.89.78h-.58c0-.87.72-1.22,1.51-1.22.46,0,1.41,0,1.41,1.21v2.29a9.68,9.68,0,0,0,.05,1.14h-.56Zm0-1.76c-.77,0-1.94-.06-1.94,1,0,.51.26.94.82.94a1.17,1.17,0,0,0,1.13-1.15Z" transform="translate(-72 -149.16)"/><path class="cls-14" d="M270.29,378.13c-1,0-1.37-.48-1.36-1.44h.55c0,.62.14,1,.84,1a.71.71,0,0,0,.77-.8c0-1.19-2-.88-2-2.39,0-.84.58-1.13,1.37-1.13s1.19.62,1.19,1.31h-.53c0-.58-.18-.88-.79-.88a.65.65,0,0,0-.69.66c0,1.13,2,.83,2,2.35A1.18,1.18,0,0,1,270.29,378.13Z" transform="translate(-72 -149.16)"/><path class="cls-14" d="M272.37,371.54h.54v4h0l1.57-2h.63l-1.61,2,1.72,2.52h-.68l-1.62-2.48h0V378h-.54Z" transform="translate(-72 -149.16)"/><path class="cls-14" d="M278,377.49h0a1.46,1.46,0,0,1-1.29.65,1.2,1.2,0,0,1-1.25-1.34c0-1.59,1.6-1.43,2.52-1.5v-.38c0-.67-.2-1.07-.92-1.07-.5,0-.89.24-.89.78h-.58c0-.87.72-1.22,1.51-1.22.46,0,1.41,0,1.41,1.21v2.29a9.68,9.68,0,0,0,.05,1.14H278Zm0-1.76c-.77,0-1.94-.06-1.94,1,0,.51.26.94.82.94a1.17,1.17,0,0,0,1.13-1.15Z" transform="translate(-72 -149.16)"/><path class="cls-14" d="M281.32,378v-6.5h.88l2.64,5.71,0,0v-5.69h.58V378h-.87l-2.65-5.77,0,0V378Z" transform="translate(-72 -149.16)"/><path class="cls-14" d="M288.8,377.49h0a1.46,1.46,0,0,1-1.29.65,1.2,1.2,0,0,1-1.25-1.34c0-1.59,1.6-1.43,2.52-1.5v-.38c0-.67-.2-1.07-.92-1.07-.5,0-.89.24-.89.78h-.58c0-.87.72-1.22,1.51-1.22.46,0,1.41,0,1.41,1.21v2.29a9.68,9.68,0,0,0,.05,1.14h-.56Zm0-1.76c-.77,0-1.94-.06-1.94,1,0,.51.26.94.82.94a1.17,1.17,0,0,0,1.13-1.15Z" transform="translate(-72 -149.16)"/><path class="cls-14" d="M289.82,373.93v-.43h.73v-.94l.54-.23v1.17H292v.43h-.92v2.92c0,.6.06.75.5.75a2.68,2.68,0,0,0,.42,0V378l-.51,0c-.73,0-.95-.32-.95-.88v-3.25Z" transform="translate(-72 -149.16)"/><path class="cls-14" d="M292.61,372.23v-.68h.67v.68Zm.06,5.82V373.5h.54V378Z" transform="translate(-72 -149.16)"/><path class="cls-14" d="M295.49,377.36h0l1.11-3.86h.52L295.78,378h-.62l-1.35-4.55h.59Z" transform="translate(-72 -149.16)"/><path class="cls-14" d="M298,375.88v.35c0,.63.17,1.47,1,1.47a.93.93,0,0,0,1-1h.57a1.38,1.38,0,0,1-1.57,1.48c-.78,0-1.57-.31-1.57-1.69v-1.12c0-1.31.55-1.92,1.57-1.92,1.57,0,1.57,1.13,1.57,2.48Zm2.05-.43c0-1-.16-1.61-1-1.61s-1,.6-1,1.61Z" transform="translate(-72 -149.16)"/><path class="cls-14" d="M325,367.25v-6.5h1.81c1,0,1.54.41,1.54,1.56,0,.78-.13,1.32-.94,1.55v0c.85.18,1.08.75,1.08,1.57,0,1.17-.56,1.81-1.65,1.81Zm1.68-3.61c.83,0,1.09-.57,1.09-1.31,0-1.08-.59-1.1-1.05-1.1h-1.14v2.4Zm-1.11,3.12h.92c1,0,1.41-.32,1.41-1.28,0-.58-.17-1.36-1.16-1.36h-1.17Z" transform="translate(-72 -149.16)"/><path class="cls-14" d="M329.44,367.25v-6.5H330v6.5Z" transform="translate(-72 -149.16)"/><path class="cls-14" d="M333.38,366.69h0a1.46,1.46,0,0,1-1.29.65,1.2,1.2,0,0,1-1.25-1.34c0-1.59,1.6-1.43,2.52-1.5v-.38c0-.67-.2-1.07-.92-1.07-.5,0-.89.24-.89.78H331c0-.87.72-1.22,1.51-1.22.46,0,1.41,0,1.41,1.21v2.29a9.76,9.76,0,0,0,.05,1.14h-.56Zm0-1.76c-.77,0-1.94-.06-1.94,1,0,.51.26.94.82.94a1.17,1.17,0,0,0,1.13-1.15Z" transform="translate(-72 -149.16)"/><path class="cls-14" d="M336.83,364c0-.57-.18-1-.8-1a.75.75,0,0,0-.73.52,6.21,6.21,0,0,0-.13,1.43c0,.82,0,1.91.84,1.91s.8-.45.83-1h.54a1.21,1.21,0,0,1-1.24,1.43c-1.54,0-1.54-1.22-1.54-2.34a6,6,0,0,1,.13-1.5,1.31,1.31,0,0,1,1.37-.88,1.18,1.18,0,0,1,1.27,1.4Z" transform="translate(-72 -149.16)"/><path class="cls-14" d="M338.1,360.75h.54v4h0l1.57-2h.63l-1.61,2,1.72,2.52h-.68l-1.62-2.48h0v2.48h-.54Z" transform="translate(-72 -149.16)"/><path class="cls-14" d="M369.53,360.75v.49h-2.37v2.43h2.26v.49h-2.26v2.61h2.43v.49h-3v-6.5Z" transform="translate(-72 -149.16)"/><path class="cls-14" d="M372.26,364c0-.57-.18-1-.8-1a.75.75,0,0,0-.73.52,6.21,6.21,0,0,0-.13,1.43c0,.82,0,1.91.84,1.91s.8-.45.83-1h.54a1.21,1.21,0,0,1-1.24,1.43c-1.54,0-1.54-1.22-1.54-2.34a6,6,0,0,1,.13-1.5,1.31,1.31,0,0,1,1.37-.88,1.18,1.18,0,0,1,1.27,1.4Z" transform="translate(-72 -149.16)"/><path class="cls-14" d="M373.39,365.46v-1c0-1.18.5-1.87,1.57-1.87s1.57.69,1.57,1.87v1c0,1.18-.5,1.87-1.57,1.87S373.39,366.64,373.39,365.46Zm.54-.5c0,1.19.14,1.94,1,1.94s1-.75,1-1.94-.13-1.93-1-1.93S373.93,363.79,373.93,365Z" transform="translate(-72 -149.16)"/><path class="cls-14" d="M377.82,367.25h-.54V362.7h.54v.56h0a1.32,1.32,0,0,1,1.1-.65c1.13,0,1.24.84,1.24,1.43v3.21h-.54v-3.18c0-.53-.21-1-.84-1s-1,.33-1,1.35Z" transform="translate(-72 -149.16)"/><path class="cls-14" d="M380.93,365.46v-1c0-1.18.5-1.87,1.57-1.87s1.57.69,1.57,1.87v1c0,1.18-.5,1.87-1.57,1.87S380.93,366.64,380.93,365.46Zm.54-.5c0,1.19.13,1.94,1,1.94s1-.75,1-1.94-.14-1.93-1-1.93S381.47,363.79,381.47,365Z" transform="translate(-72 -149.16)"/><path class="cls-14" d="M385.35,367.25h-.54v-4.56h.49v.57h0a1.22,1.22,0,0,1,1.08-.65,1.06,1.06,0,0,1,1,.71,1.2,1.2,0,0,1,1.12-.71,1.15,1.15,0,0,1,1.18,1.25v3.38h-.54V364c0-.45-.17-1-.7-1-.68,0-.95.68-.95,1.28v2.93H387V364c0-.45-.17-1-.7-1-.68,0-.95.68-.95,1.28Z" transform="translate(-72 -149.16)"/><path class="cls-14" d="M390.71,361.43v-.68h.67v.68Zm.06,5.82V362.7h.54v4.55Z" transform="translate(-72 -149.16)"/><path class="cls-14" d="M394.39,364c0-.57-.18-1-.8-1a.75.75,0,0,0-.73.52,6.21,6.21,0,0,0-.13,1.43c0,.82,0,1.91.84,1.91s.8-.45.83-1h.54a1.21,1.21,0,0,1-1.24,1.43c-1.54,0-1.54-1.22-1.54-2.34a6.06,6.06,0,0,1,.13-1.5,1.31,1.31,0,0,1,1.37-.88,1.18,1.18,0,0,1,1.27,1.4Z" transform="translate(-72 -149.16)"/><path class="cls-14" d="M398,366.69h0a1.46,1.46,0,0,1-1.29.65,1.2,1.2,0,0,1-1.25-1.34c0-1.59,1.6-1.43,2.52-1.5v-.38c0-.67-.2-1.07-.92-1.07-.5,0-.89.24-.89.78h-.58c0-.87.72-1.22,1.51-1.22.46,0,1.41,0,1.41,1.21v2.29a9.76,9.76,0,0,0,.05,1.14H398Zm0-1.76c-.77,0-1.94-.06-1.94,1,0,.51.26.94.82.94a1.17,1.17,0,0,0,1.13-1.15Z" transform="translate(-72 -149.16)"/><path class="cls-14" d="M399.6,367.25v-6.5h.54v6.5Z" transform="translate(-72 -149.16)"/><path class="cls-14" d="M401.37,367.25v-6.5h.54v6.5Z" transform="translate(-72 -149.16)"/><path class="cls-14" d="M403.94,367.25l-1.44-4.56h.58l1.11,3.73h0l1.07-3.73h.54L403.94,369h-.53Z" transform="translate(-72 -149.16)"/><path class="cls-14" d="M363.7,371.54h1.72c1.82,0,2,1.06,2,3.28s-.32,3.22-2.28,3.22H363.7Zm.58,6h.7c1.74,0,1.91-.47,1.91-3.12,0-1.86-.25-2.4-1.85-2.4h-.76Z" transform="translate(-72 -149.16)"/><path class="cls-14" d="M368.47,372.23v-.68h.67v.68Zm.06,5.82V373.5h.54V378Z" transform="translate(-72 -149.16)"/><path class="cls-14" d="M371.33,378.13c-1,0-1.37-.48-1.36-1.44h.55c0,.62.14,1,.84,1a.71.71,0,0,0,.77-.8c0-1.19-2-.88-2-2.39,0-.84.58-1.13,1.37-1.13s1.19.62,1.19,1.31h-.53c0-.58-.18-.88-.79-.88a.65.65,0,0,0-.69.66c0,1.13,2,.83,2,2.35A1.18,1.18,0,0,1,371.33,378.13Z" transform="translate(-72 -149.16)"/><path class="cls-14" d="M375.75,377.49h0a1.46,1.46,0,0,1-1.29.65,1.2,1.2,0,0,1-1.25-1.34c0-1.59,1.6-1.43,2.52-1.5v-.38c0-.67-.2-1.07-.92-1.07-.5,0-.89.24-.89.78h-.58c0-.87.72-1.22,1.51-1.22.46,0,1.41,0,1.41,1.21v2.29a9.59,9.59,0,0,0,.05,1.14h-.56Zm0-1.76c-.77,0-1.94-.06-1.94,1,0,.51.26.94.82.94a1.17,1.17,0,0,0,1.13-1.15Z" transform="translate(-72 -149.16)"/><path class="cls-14" d="M379.56,377.47h0a1.27,1.27,0,0,1-1.15.66c-1.31,0-1.39-1.31-1.39-2.37,0-.87,0-2.36,1.4-2.36a1.4,1.4,0,0,1,1.1.54h0v-2.41h.54v5.6a5.67,5.67,0,0,0,.05.9h-.52Zm0-1.29v-.81c0-.27,0-1.53-1-1.53s-1,.88-1,1.94c0,1.69.4,1.92,1,1.92S379.53,377.29,379.53,376.18Z" transform="translate(-72 -149.16)"/><path class="cls-14" d="M382.16,377.36h0l1.11-3.86h.52L382.46,378h-.62l-1.35-4.55h.58Z" transform="translate(-72 -149.16)"/><path class="cls-14" d="M386.57,377.49h0a1.46,1.46,0,0,1-1.29.65,1.2,1.2,0,0,1-1.25-1.34c0-1.59,1.6-1.43,2.52-1.5v-.38c0-.67-.2-1.07-.92-1.07-.5,0-.89.24-.89.78h-.58c0-.87.72-1.22,1.51-1.22.46,0,1.41,0,1.41,1.21v2.29a9.76,9.76,0,0,0,.05,1.14h-.56Zm0-1.76c-.77,0-1.94-.06-1.94,1,0,.51.26.94.82.94a1.17,1.17,0,0,0,1.13-1.15Z" transform="translate(-72 -149.16)"/><path class="cls-14" d="M388.53,378H388V373.5h.54v.56h0a1.31,1.31,0,0,1,1.1-.65c1.13,0,1.24.84,1.24,1.43V378h-.54v-3.18c0-.53-.21-1-.84-1s-1,.33-1,1.35Z" transform="translate(-72 -149.16)"/><path class="cls-14" d="M391.36,373.93v-.43h.73v-.94l.54-.23v1.17h.92v.43h-.92v2.92c0,.6.06.75.5.75a2.68,2.68,0,0,0,.42,0V378l-.51,0c-.73,0-.95-.32-.95-.88v-3.25Z" transform="translate(-72 -149.16)"/><path class="cls-14" d="M396.39,377.49h0a1.46,1.46,0,0,1-1.29.65,1.2,1.2,0,0,1-1.25-1.34c0-1.59,1.6-1.43,2.52-1.5v-.38c0-.67-.2-1.07-.92-1.07-.5,0-.89.24-.89.78H394c0-.87.72-1.22,1.51-1.22.46,0,1.41,0,1.41,1.21v2.29a9.59,9.59,0,0,0,.05,1.14h-.56Zm0-1.76c-.77,0-1.94-.06-1.94,1,0,.51.26.94.82.94a1.17,1.17,0,0,0,1.13-1.15Z" transform="translate(-72 -149.16)"/><path class="cls-14" d="M400.19,373.49h.53c0,.43,0,.66,0,.89v3.83c0,1-.31,1.59-1.6,1.59a1.16,1.16,0,0,1-1.32-1.26h.54a.77.77,0,0,0,.86.83c1.05,0,1-.57,1-1.93h0a1.24,1.24,0,0,1-1.1.55c-1.31,0-1.4-1.12-1.4-2.13a4.32,4.32,0,0,1,.13-1.55,1.28,1.28,0,0,1,1.28-.9,1.23,1.23,0,0,1,1.12.64l0,0Zm-2,2.18c0,.95,0,1.89,1,1.89A.88.88,0,0,0,400,377a4.67,4.67,0,0,0,.17-1.89c0-1-.51-1.31-1-1.31C398.2,373.84,398.18,375,398.18,375.67Z" transform="translate(-72 -149.16)"/><path class="cls-14" d="M402,375.88v.35c0,.63.17,1.47,1,1.47a.93.93,0,0,0,1-1h.57a1.38,1.38,0,0,1-1.57,1.48c-.78,0-1.57-.31-1.57-1.69v-1.12c0-1.31.55-1.92,1.57-1.92,1.57,0,1.57,1.13,1.57,2.48Zm2.05-.43c0-1-.16-1.61-1-1.61s-1,.6-1,1.61Z" transform="translate(-72 -149.16)"/><path class="cls-14" d="M407.74,377.47h0a1.27,1.27,0,0,1-1.15.66c-1.31,0-1.39-1.31-1.39-2.37,0-.87,0-2.36,1.4-2.36a1.4,1.4,0,0,1,1.1.54h0v-2.41h.54v5.6a5.8,5.8,0,0,0,.05.9h-.52Zm0-1.29v-.81c0-.27,0-1.53-1-1.53s-1,.88-1,1.94c0,1.69.41,1.92,1,1.92S407.71,377.29,407.71,376.18Z" transform="translate(-72 -149.16)"/><path class="cls-14" d="M426.49,367.25v-6.5h.58v2.92h2.56v-2.92h.58v6.5h-.58v-3.1h-2.56v3.1Z" transform="translate(-72 -149.16)"/><path class="cls-14" d="M431.28,361.43v-.68h.67v.68Zm.06,5.82V362.7h.54v4.55Z" transform="translate(-72 -149.16)"/><path class="cls-14" d="M434.14,367.33c-1,0-1.37-.48-1.36-1.44h.55c0,.62.14,1,.84,1a.71.71,0,0,0,.77-.8c0-1.19-2-.88-2-2.39,0-.84.58-1.13,1.37-1.13s1.19.62,1.19,1.31h-.53c0-.58-.18-.88-.79-.88a.65.65,0,0,0-.69.66c0,1.13,2,.83,2,2.35A1.18,1.18,0,0,1,434.14,367.33Z" transform="translate(-72 -149.16)"/><path class="cls-14" d="M436.75,363.25h0a1.35,1.35,0,0,1,1.1-.63c1.42,0,1.43,1.24,1.43,1.84v1c0,1.18-.41,1.87-1.57,1.87a1.11,1.11,0,0,1-.95-.59h0V369h-.54V362.7h.52Zm0,2.12c0,1,.47,1.53,1,1.53.89,0,1-.75,1-1.94s-.14-1.93-1-1.93c-.35,0-1,.4-1,1.52Z" transform="translate(-72 -149.16)"/><path class="cls-14" d="M442.33,366.69h0a1.46,1.46,0,0,1-1.29.65,1.2,1.2,0,0,1-1.25-1.34c0-1.59,1.6-1.43,2.52-1.5v-.38c0-.67-.2-1.07-.92-1.07-.5,0-.89.24-.89.78h-.58c0-.87.72-1.22,1.51-1.22.46,0,1.41,0,1.41,1.21v2.29a9.59,9.59,0,0,0,.05,1.14h-.56Zm0-1.76c-.77,0-1.94-.06-1.94,1,0,.51.26.94.82.94a1.17,1.17,0,0,0,1.13-1.15Z" transform="translate(-72 -149.16)"/><path class="cls-14" d="M444.3,367.25h-.54V362.7h.54v.56h0a1.32,1.32,0,0,1,1.1-.65c1.13,0,1.24.84,1.24,1.43v3.21h-.54v-3.18c0-.53-.21-1-.84-1s-1,.33-1,1.35Z" transform="translate(-72 -149.16)"/><path class="cls-14" d="M447.64,361.43v-.68h.67v.68Zm.06,5.82V362.7h.54v4.55Z" transform="translate(-72 -149.16)"/><path class="cls-14" d="M451.32,364c0-.57-.18-1-.8-1a.75.75,0,0,0-.73.52,6.21,6.21,0,0,0-.13,1.43c0,.82,0,1.91.84,1.91s.8-.45.83-1h.54a1.21,1.21,0,0,1-1.24,1.43c-1.54,0-1.54-1.22-1.54-2.34a6.06,6.06,0,0,1,.13-1.5,1.31,1.31,0,0,1,1.37-.88,1.18,1.18,0,0,1,1.27,1.4Z" transform="translate(-72 -149.16)"/><path class="cls-14" d="M486,360.75h.77l1.31,5.7h0l1.39-5.7h.57l-1.61,6.5h-.76l-1.3-5.78h0l-1.34,5.78h-.72l-1.57-6.5h.61l1.31,5.74h0Z" transform="translate(-72 -149.16)"/><path class="cls-14" d="M490.5,367.25v-6.5H491v2.51h0a1.31,1.31,0,0,1,1.1-.65c1.13,0,1.24.84,1.24,1.43v3.21h-.54v-3.18c0-.53-.21-1-.84-1s-1,.33-1,1.35v2.85Z" transform="translate(-72 -149.16)"/><path class="cls-14" d="M494.39,361.43v-.68h.67v.68Zm.06,5.82V362.7H495v4.55Z" transform="translate(-72 -149.16)"/><path class="cls-14" d="M495.64,363.13v-.43h.73v-.94l.54-.23v1.17h.92v.43h-.92V366c0,.6.06.75.5.75a2.68,2.68,0,0,0,.42,0v.47l-.51,0c-.73,0-.95-.32-.95-.88v-3.25Z" transform="translate(-72 -149.16)"/><path class="cls-14" d="M498.74,365.08v.35c0,.63.17,1.47,1,1.47a.93.93,0,0,0,1-1h.57a1.38,1.38,0,0,1-1.57,1.48c-.78,0-1.57-.31-1.57-1.69v-1.12c0-1.31.55-1.92,1.57-1.92,1.57,0,1.57,1.13,1.57,2.48Zm2.05-.43c0-1-.16-1.61-1-1.61s-1,.6-1,1.61Z" transform="translate(-72 -149.16)"/><path class="cls-14" d="M528.21,360.75l2,6.5h-.6l-.52-1.71h-2.55l-.51,1.71h-.58l2.05-6.5ZM529,365l-1.11-3.67h0l-1.1,3.67Z" transform="translate(-72 -149.16)"/><path class="cls-14" d="M531.89,367.33c-1,0-1.37-.48-1.36-1.44h.55c0,.62.14,1,.84,1a.71.71,0,0,0,.77-.8c0-1.19-2-.88-2-2.39,0-.84.58-1.13,1.37-1.13s1.19.62,1.19,1.31h-.53c0-.58-.18-.88-.79-.88a.65.65,0,0,0-.69.66c0,1.13,2,.83,2,2.35A1.18,1.18,0,0,1,531.89,367.33Z" transform="translate(-72 -149.16)"/><path class="cls-14" d="M534.07,361.43v-.68h.67v.68Zm.06,5.82V362.7h.54v4.55Z" transform="translate(-72 -149.16)"/><path class="cls-14" d="M538.08,366.69h0a1.46,1.46,0,0,1-1.29.65,1.2,1.2,0,0,1-1.25-1.34c0-1.59,1.6-1.43,2.52-1.5v-.38c0-.67-.2-1.07-.92-1.07-.5,0-.89.24-.89.78h-.58c0-.87.72-1.22,1.51-1.22.46,0,1.41,0,1.41,1.21v2.29a9.76,9.76,0,0,0,.05,1.14h-.56Zm0-1.76c-.77,0-1.94-.06-1.94,1,0,.51.26.94.82.94a1.17,1.17,0,0,0,1.13-1.15Z" transform="translate(-72 -149.16)"/><path class="cls-14" d="M540,367.25h-.54V362.7H540v.56h0a1.31,1.31,0,0,1,1.1-.65c1.13,0,1.24.84,1.24,1.43v3.21h-.54v-3.18c0-.53-.21-1-.84-1s-1,.33-1,1.35Z" transform="translate(-72 -149.16)"/><path class="cls-14" d="M542.7,368.24l2.56-7.49h.49l-2.57,7.49Z" transform="translate(-72 -149.16)"/><path class="cls-14" d="M546.07,360.75h1.78c.54,0,1.43.07,1.43,1.58,0,1.31-.42,1.9-1.54,1.9h-1.1v3h-.58Zm.58,3h1.07c.6,0,1-.29,1-1.31s-.48-1.2-1-1.2h-1.06Z" transform="translate(-72 -149.16)"/><path class="cls-14" d="M552.16,366.69h0a1.46,1.46,0,0,1-1.29.65,1.2,1.2,0,0,1-1.25-1.34c0-1.59,1.6-1.43,2.52-1.5v-.38c0-.67-.2-1.07-.92-1.07-.5,0-.89.24-.89.78h-.58c0-.87.72-1.22,1.51-1.22.46,0,1.41,0,1.41,1.21v2.29a9.59,9.59,0,0,0,.05,1.14h-.56Zm0-1.76c-.77,0-1.94-.06-1.94,1,0,.51.26.94.82.94a1.17,1.17,0,0,0,1.13-1.15Z" transform="translate(-72 -149.16)"/><path class="cls-14" d="M555.61,364c0-.57-.18-1-.8-1a.75.75,0,0,0-.73.52A6.21,6.21,0,0,0,554,365c0,.82,0,1.91.84,1.91s.8-.45.83-1h.54a1.21,1.21,0,0,1-1.24,1.43c-1.54,0-1.54-1.22-1.54-2.34a6,6,0,0,1,.13-1.5,1.31,1.31,0,0,1,1.37-.88,1.18,1.18,0,0,1,1.27,1.4Z" transform="translate(-72 -149.16)"/><path class="cls-14" d="M557,361.43v-.68h.67v.68Zm.06,5.82V362.7h.54v4.55Z" transform="translate(-72 -149.16)"/><path class="cls-14" d="M559,363.13h-.73v-.43H559v-.77a1.05,1.05,0,0,1,1.16-1.22l.31,0v.45H560c-.52,0-.52.47-.52.73v.77h.92v.43h-.92v4.11H559Zm1.82-1.7v-.68h.67v.68Zm.06,5.82V362.7h.54v4.55Z" transform="translate(-72 -149.16)"/><path class="cls-14" d="M564.43,364c0-.57-.18-1-.8-1a.75.75,0,0,0-.73.52,6.21,6.21,0,0,0-.13,1.43c0,.82,0,1.91.84,1.91s.8-.45.83-1H565a1.21,1.21,0,0,1-1.24,1.43c-1.54,0-1.54-1.22-1.54-2.34a6.06,6.06,0,0,1,.13-1.5,1.31,1.31,0,0,1,1.37-.88A1.18,1.18,0,0,1,565,364Z" transform="translate(-72 -149.16)"/><path class="cls-14" d="M534.44,371.54V378h-.58v-6.5Z" transform="translate(-72 -149.16)"/><path class="cls-14" d="M536.68,378.13c-1,0-1.37-.48-1.36-1.44h.55c0,.62.14,1,.84,1a.71.71,0,0,0,.77-.8c0-1.19-2-.88-2-2.39,0-.84.58-1.13,1.37-1.13s1.19.62,1.19,1.31h-.53c0-.58-.18-.88-.79-.88a.65.65,0,0,0-.69.66c0,1.13,2,.83,2,2.35A1.18,1.18,0,0,1,536.68,378.13Z" transform="translate(-72 -149.16)"/><path class="cls-14" d="M538.93,378v-6.5h.54V378Z" transform="translate(-72 -149.16)"/><path class="cls-14" d="M542.87,377.49h0a1.46,1.46,0,0,1-1.29.65,1.2,1.2,0,0,1-1.25-1.34c0-1.59,1.6-1.43,2.52-1.5v-.38c0-.67-.2-1.07-.92-1.07-.5,0-.89.24-.89.78h-.58c0-.87.72-1.22,1.51-1.22.46,0,1.41,0,1.41,1.21v2.29a9.59,9.59,0,0,0,.05,1.14h-.56Zm0-1.76c-.77,0-1.94-.06-1.94,1,0,.51.26.94.82.94a1.17,1.17,0,0,0,1.13-1.15Z" transform="translate(-72 -149.16)"/><path class="cls-14" d="M544.83,378h-.54V373.5h.54v.56h0a1.31,1.31,0,0,1,1.1-.65c1.13,0,1.24.84,1.24,1.43V378h-.54v-3.18c0-.53-.21-1-.84-1s-1,.33-1,1.35Z" transform="translate(-72 -149.16)"/><path class="cls-14" d="M550.45,377.47h0a1.27,1.27,0,0,1-1.15.66c-1.31,0-1.39-1.31-1.39-2.37,0-.87,0-2.36,1.4-2.36a1.4,1.4,0,0,1,1.1.54h0v-2.41h.54v5.6a5.67,5.67,0,0,0,.05.9h-.52Zm0-1.29v-.81c0-.27,0-1.53-1-1.53s-1,.88-1,1.94c0,1.69.4,1.92,1,1.92S550.42,377.29,550.42,376.18Z" transform="translate(-72 -149.16)"/><path class="cls-14" d="M552.26,375.88v.35c0,.63.17,1.47,1,1.47a.93.93,0,0,0,1-1h.57a1.38,1.38,0,0,1-1.57,1.48c-.78,0-1.57-.31-1.57-1.69v-1.12c0-1.31.55-1.92,1.57-1.92,1.57,0,1.57,1.13,1.57,2.48Zm2.05-.43c0-1-.16-1.61-1-1.61s-1,.6-1,1.61Z" transform="translate(-72 -149.16)"/><path class="cls-14" d="M556.18,374.11h0a1.38,1.38,0,0,1,1.25-.7V374a1.09,1.09,0,0,0-1.27,1.16V378h-.54V373.5h.54Z" transform="translate(-72 -149.16)"/></g><g id="Bars"><polygon class="cls-15" points="39.95 98.51 56.37 98.51 56.37 206.99 39.95 206.99 39.95 98.51 39.95 98.51"/><polygon class="cls-16" points="93.18 127.69 109.5 127.69 109.5 206.99 93.18 206.99 93.18 127.69 93.18 127.69"/><polygon class="cls-16" points="146.31 126.92 162.63 126.92 162.63 206.99 146.31 206.99 146.31 126.92 146.31 126.92"/><polygon class="cls-16" points="199.44 117.46 215.76 117.46 215.76 206.99 199.44 206.99 199.44 117.46 199.44 117.46"/><polygon class="cls-16" points="252.57 113.06 268.89 113.06 268.89 206.99 252.57 206.99 252.57 113.06 252.57 113.06"/><polygon class="cls-16" points="305.7 109.92 322.12 109.92 322.12 206.99 305.7 206.99 305.7 109.92 305.7 109.92"/><polygon class="cls-16" points="358.84 107.53 375.25 107.53 375.25 206.99 358.84 206.99 358.84 107.53 358.84 107.53"/><polygon class="cls-16" points="412.06 90.22 428.38 90.22 428.38 206.99 412.06 206.99 412.06 90.22 412.06 90.22"/><polygon class="cls-16" points="465.19 87.84 481.51 87.84 481.51 206.99 465.19 206.99 465.19 87.84 465.19 87.84"/><path class="cls-17" d="M135.67,239.91l-15.46-6.56-15.46,6.56,2.9,1.23v5a.93.93,0,0,0-.07,1.58l-.78,6.48h2.59l-.79-6.48a.93.93,0,0,0-.07-1.58v-4.58L112,243v3.44h16.4V243Z" transform="translate(-72 -149.16)"/><path class="cls-16" d="M188.79,269.26l-15.46-6.56-15.46,6.56,2.9,1.23v5a.93.93,0,0,0-.07,1.58l-.78,6.48h2.59l-.79-6.48a.93.93,0,0,0-.07-1.58v-4.58l3.46,1.47v3.44h16.4v-3.44Z" transform="translate(-72 -149.16)"/><path class="cls-16" d="M241.93,268.52,226.47,262,211,268.52l2.9,1.23v5a.93.93,0,0,0-.07,1.58l-.78,6.48h2.59l-.79-6.48a.93.93,0,0,0-.07-1.58v-4.58l3.46,1.47V275h16.4v-3.44Z" transform="translate(-72 -149.16)"/><path class="cls-16" d="M295.06,258.85l-15.46-6.56-15.46,6.56,2.9,1.23v5a.93.93,0,0,0-.07,1.58l-.78,6.48h2.59l-.79-6.48a.93.93,0,0,0-.07-1.58v-4.58l3.46,1.47v3.44h16.4v-3.44Z" transform="translate(-72 -149.16)"/><path class="cls-16" d="M348.19,254.53,332.73,248l-15.46,6.56,2.9,1.23v5a.93.93,0,0,0-.07,1.58l-.78,6.48h2.59l-.79-6.48a.93.93,0,0,0-.07-1.58v-4.58l3.46,1.47V261h16.4v-3.44Z" transform="translate(-72 -149.16)"/><path class="cls-16" d="M401.37,251.36l-15.46-6.56-15.46,6.56,2.9,1.23v5a.93.93,0,0,0-.07,1.58l-.78,6.48h2.59l-.79-6.48a.93.93,0,0,0-.07-1.58V253l3.46,1.47v3.44h16.4v-3.44Z" transform="translate(-72 -149.16)"/><path class="cls-16" d="M454.5,249.07,439,242.51l-15.46,6.56,2.9,1.23v5a.93.93,0,0,0-.07,1.58l-.78,6.48h2.59l-.79-6.48a.93.93,0,0,0-.07-1.58v-4.58l3.46,1.47v3.44h16.4v-3.44Z" transform="translate(-72 -149.16)"/><path class="cls-16" d="M507.68,231.77l-15.46-6.56-15.46,6.56,2.9,1.23v5a.93.93,0,0,0-.07,1.58l-.78,6.48h2.59l-.79-6.48a.93.93,0,0,0-.07-1.58v-4.58l3.46,1.47v3.44h16.4v-3.44Z" transform="translate(-72 -149.16)"/><path class="cls-16" d="M560.81,229.25l-15.46-6.56-15.46,6.56,2.9,1.23v5a.93.93,0,0,0-.07,1.58l-.78,6.48h2.59l-.79-6.48a.93.93,0,0,0-.07-1.58v-4.58l3.46,1.47v3.44h16.4v-3.44Z" transform="translate(-72 -149.16)"/></g></g><g id="Title"><path class="cls-16" d="M108.1,158.5v-.94l.76-.08c.17,0,.19-.06.19-.24v-6.15c0-.18,0-.23-.19-.24l-.76-.08v-.95h6.33v2.42l-1.32-.06-.17-.91c0-.12-.07-.16-.2-.16H110.9v2.35h2.76v1.33H110.9v2.42c0,.19,0,.22.19.24l1.76.1v.95Z" transform="translate(-72 -149.16)"/><path class="cls-16" d="M115.12,158.5v-.95l.61-.08c.17,0,.19-.06.19-.24V153.7c0-.13,0-.22-.16-.25l-.65-.23.13-1h2.48v5c0,.19,0,.22.19.24l.61.08v.95Zm1.55-7.21a1,1,0,0,1-1.08-1.08,1.09,1.09,0,0,1,2.17,0A1,1,0,0,1,116.67,151.29Z" transform="translate(-72 -149.16)"/><path class="cls-16" d="M124.18,153.35a1.9,1.9,0,0,1,.44,1.21c0,1.33-1,2.11-2.55,2.11a3.8,3.8,0,0,1-.95-.11l-.4.64,1.18.07c2.07.13,3.3.19,3.3,1.79,0,1.38-1.21,2.16-3.3,2.16s-3-.55-3-1.5a1.55,1.55,0,0,1,.66-1.22.8.8,0,0,1-.53-.79,1.07,1.07,0,0,1,.35-.73c.22-.23.46-.46.74-.72a1.92,1.92,0,0,1-1-1.8c0-1.38.91-2.33,2.75-2.33a4.14,4.14,0,0,1,1.1.12h2.34v1Zm-3.55,5.47a1.07,1.07,0,0,0-.31.64c0,.48.61.62,1.45.62s1.64,0,1.64-.7c0-.38-.46-.41-1-.44Zm1.32-5.5a1,1,0,0,0-1.15,1.1c0,.59.32,1,1.12,1a1,1,0,0,0,1.13-1A1,1,0,0,0,121.94,153.32Z" transform="translate(-72 -149.16)"/><path class="cls-16" d="M130.48,158.5l-.1-.65h-.06a3.31,3.31,0,0,1-2.13.8c-1.26,0-1.74-.72-1.74-2.11v-2.93c0-.19,0-.22-.19-.25l-.58-.12.12-1h2.46v4c0,.73.12,1,.64,1a1.89,1.89,0,0,0,1.24-.55v-3.08c0-.19,0-.2-.19-.24l-.52-.12.13-1h2.39v5c0,.16,0,.22.17.23l.6.08v1Z" transform="translate(-72 -149.16)"/><path class="cls-16" d="M133.23,158.5v-1l.54-.07c.17,0,.19-.06.19-.24V153.7c0-.13,0-.22-.16-.25l-.65-.23.13-1h2.11l.14,1h.07a2,2,0,0,1,1.69-1.08,5.61,5.61,0,0,1,1,.11v2.18l-1.44,0-.12-.64c0-.11-.06-.13-.16-.13a1.59,1.59,0,0,0-.86.42v3.18c0,.19,0,.23.19.24l1.19.1v1Z" transform="translate(-72 -149.16)"/><path class="cls-16" d="M144.42,158a5.6,5.6,0,0,1-2.46.61c-2.31,0-3.11-1.44-3.11-3.31a2.87,2.87,0,0,1,3-3.2c1.58,0,2.64.83,2.64,2.9,0,.14,0,.56,0,.8h-3.67c.06.85.43,1.42,1.42,1.42a5.11,5.11,0,0,0,1.79-.41Zm-1.73-3.33c0-1-.41-1.27-.9-1.27s-.94.29-1,1.27Z" transform="translate(-72 -149.16)"/><path class="cls-16" d="M152.53,158.5v-.94l1-.11-.43-1.25h-3l-.42,1.25.95.11v.94h-3.35v-.94l.53-.13c.14,0,.25-.08.3-.23l2.63-7.39h2.12l2.61,7.41c0,.14.14.17.29.2l.55.13v.94Zm-.88-6.85h-.07l-1.1,3.26h2.24Z" transform="translate(-72 -149.16)"/><path class="cls-16" d="M158,154.09c-.7,0-1-.31-1-.94s.34-.94,1-.94,1,.32,1,.94S158.68,154.09,158,154.09Zm0,4.56c-.7,0-1-.31-1-.94s.34-.94,1-.94,1,.32,1,.94S158.68,158.64,158,158.64Z" transform="translate(-72 -149.16)"/><path class="cls-13" d="M169.13,150.79c0-.18,0-.23-.19-.24l-.76-.08v-.65h3v.65l-.8.1c-.18,0-.19,0-.19.23v4.81c0,2.07-1.15,3-3.2,3-2.23,0-3.11-1.06-3.11-3.07v-4.79c0-.18,0-.23-.19-.24l-.76-.08v-.65h3v.65l-.8.1c-.18,0-.19,0-.19.23v4.65c0,1.62.68,2.27,2.08,2.27s2.1-.56,2.1-2.23Z" transform="translate(-72 -149.16)"/><path class="cls-13" d="M172.19,158.64a.76.76,0,1,1,.79-.76A.69.69,0,0,1,172.19,158.64Z" transform="translate(-72 -149.16)"/><path class="cls-13" d="M178.74,152l-.18-1c0-.17-.07-.22-.13-.25a2.39,2.39,0,0,0-1.14-.2c-1.23,0-1.83.54-1.83,1.39s.86,1.28,1.82,1.58c1.2.37,2.55.77,2.55,2.57s-1.46,2.53-3.18,2.53a6.93,6.93,0,0,1-2.52-.46v-2h.8l.23,1.06a.29.29,0,0,0,.24.26,4.19,4.19,0,0,0,1.34.2c1.22,0,2-.47,2-1.51s-.83-1.37-1.76-1.64c-1.21-.36-2.61-.67-2.61-2.48s1.34-2.45,3-2.45a6.33,6.33,0,0,1,2.23.42v2Z" transform="translate(-72 -149.16)"/><path class="cls-13" d="M181.62,158.64a.76.76,0,1,1,.79-.76A.69.69,0,0,1,181.62,158.64Z" transform="translate(-72 -149.16)"/><path class="cls-13" d="M186.29,158.5v-.65l.76-.08c.17,0,.19-.06.19-.24V150.8c0-.18,0-.23-.19-.24l-.76-.08v-.66H190c2.22,0,2.89,1.18,2.89,2.55,0,2.06-1.26,2.85-3.29,2.85h-1.27v2.29c0,.19,0,.22.19.24l1.71.1v.65Zm3.21-4.15c1.21,0,2.24-.26,2.24-1.93,0-1.26-.71-1.73-2.09-1.73h-1.33v3.66Z" transform="translate(-72 -149.16)"/><path class="cls-13" d="M198.79,158.5l-.1-.82h0a3.45,3.45,0,0,1-2.31,1c-1.32,0-1.73-.8-1.73-2.18v-3c0-.19,0-.24-.19-.28l-.62-.16.1-.65h1.81v3.87c0,1,.18,1.55.94,1.55a2.74,2.74,0,0,0,1.93-1V153.4c0-.19,0-.23-.19-.26l-.6-.16.1-.65h1.79v5.18c0,.18,0,.24.17.25l.64.08v.65Z" transform="translate(-72 -149.16)"/><path class="cls-13" d="M201.9,158.5a11.87,11.87,0,0,0,.14-1.71v-6.22c0-.13,0-.22-.16-.25l-.71-.23.11-.64h1.85v3.47a3.71,3.71,0,0,1,2.05-.7c1.34,0,2.27.86,2.27,3,0,2.47-1,3.45-2.53,3.45a2.61,2.61,0,0,1-1.86-.74l0,0-.06.58Zm1.24-1.54a2.6,2.6,0,0,0,1.64.78c1.13,0,1.57-.94,1.57-2.46s-.6-2.16-1.45-2.16a3.19,3.19,0,0,0-1.76.67Z" transform="translate(-72 -149.16)"/><path class="cls-13" d="M208.39,158.5v-.66l.74-.07c.17,0,.19-.06.19-.24v-7c0-.13,0-.22-.16-.25l-.72-.23.11-.64h1.86v8.08c0,.19,0,.22.19.24l.72.08v.65Z" transform="translate(-72 -149.16)"/><path class="cls-13" d="M211.91,158.5v-.66l.79-.07c.17,0,.19-.06.19-.24v-4.08c0-.13,0-.22-.16-.25l-.68-.23.11-.64H214v5.19c0,.19,0,.22.19.24l.77.08v.65Zm1.37-7.5a.76.76,0,1,1,0-1.52.76.76,0,1,1,0,1.52Z" transform="translate(-72 -149.16)"/><path class="cls-13" d="M220.5,158.14a4,4,0,0,1-2.05.5c-2.05,0-2.93-1.26-2.93-3.15,0-2.28,1.32-3.27,3.14-3.27a4.39,4.39,0,0,1,1.82.37v1.6l-.8,0-.14-.79a.18.18,0,0,0-.14-.17,2.72,2.72,0,0,0-.82-.11c-1.07,0-1.92.62-1.92,2.34s.79,2.33,2,2.33a3.2,3.2,0,0,0,1.54-.4Z" transform="translate(-72 -149.16)"/><path class="cls-13" d="M229.5,158.5v-.65l.76-.08c.17,0,.19-.06.19-.24v-3.07h-4.13v3.06c0,.19,0,.22.19.24l.8.1v.65h-3v-.65l.76-.08c.17,0,.19-.06.19-.24v-6.74c0-.18,0-.23-.19-.24l-.76-.08v-.65h3v.65l-.8.1c-.18,0-.19,0-.19.23v2.81h4.13v-2.81c0-.18,0-.23-.19-.24l-.76-.08v-.65h3v.65l-.8.1c-.18,0-.19,0-.19.23v6.73c0,.19,0,.22.19.24l.8.1v.65Z" transform="translate(-72 -149.16)"/><path class="cls-13" d="M233.54,158.5v-.66l.79-.07c.17,0,.19-.06.19-.24v-4.08c0-.13,0-.22-.16-.25l-.68-.23.11-.64h1.82v5.19c0,.19,0,.22.19.24l.77.08v.65Zm1.37-7.5a.76.76,0,1,1,0-1.52.76.76,0,1,1,0,1.52Z" transform="translate(-72 -149.16)"/><path class="cls-13" d="M242,153.19a1.86,1.86,0,0,1,.44,1.25,2.23,2.23,0,0,1-2.49,2.21,3,3,0,0,1-1-.14l-.54,1,1.48.08c2.16.12,3.13.23,3.13,1.64,0,1.19-1,1.93-3.11,1.93s-2.79-.56-2.79-1.48a1.88,1.88,0,0,1,.73-1.35.66.66,0,0,1-.53-.65,1.23,1.23,0,0,1,.26-.66c.19-.28.44-.58.66-.86a1.86,1.86,0,0,1-.9-1.7,2.3,2.3,0,0,1,2.6-2.28,4.16,4.16,0,0,1,1.07.12h2.13v.77Zm-3.3,5.37a1.56,1.56,0,0,0-.53,1c0,.65.67.79,1.85.8.64,0,1.86-.1,1.86-1,0-.56-.47-.61-1.25-.68Zm1.25-5.47a1.31,1.31,0,0,0-1.5,1.37c0,.71.41,1.28,1.46,1.28a1.32,1.32,0,0,0,1.46-1.36A1.25,1.25,0,0,0,240,153.09Z" transform="translate(-72 -149.16)"/><path class="cls-13" d="M247.76,158.5v-.66l.58-.07c.16,0,.22-.07.22-.24v-2.79c0-.89-.16-1.59-1-1.59a3.26,3.26,0,0,0-1.9.78v3.61c0,.19,0,.22.19.24l.67.08v.65h-2.75v-.66l.6-.07c.17,0,.19-.06.19-.24v-7c0-.13,0-.22-.16-.25l-.72-.23.11-.64h1.85V153a3.64,3.64,0,0,1,2.16-.79c1.28,0,1.85.83,1.85,2.18v3.13c0,.19,0,.22.19.24l.68.08v.65Z" transform="translate(-72 -149.16)"/><path class="cls-13" d="M258.77,152l-.18-1c0-.17-.07-.22-.13-.25a2.39,2.39,0,0,0-1.14-.2c-1.23,0-1.83.54-1.83,1.39s.86,1.28,1.82,1.58c1.2.37,2.55.77,2.55,2.57s-1.46,2.53-3.18,2.53a6.93,6.93,0,0,1-2.52-.46v-2h.8l.23,1.06a.29.29,0,0,0,.24.26,4.19,4.19,0,0,0,1.34.2c1.22,0,2-.47,2-1.51s-.83-1.37-1.76-1.64c-1.21-.36-2.61-.67-2.61-2.48s1.34-2.45,3-2.45a6.33,6.33,0,0,1,2.23.42v2Z" transform="translate(-72 -149.16)"/><path class="cls-13" d="M265.89,158.14a4,4,0,0,1-2.05.5c-2.05,0-2.93-1.26-2.93-3.15,0-2.28,1.32-3.27,3.14-3.27a4.39,4.39,0,0,1,1.82.37v1.6l-.8,0-.14-.79a.18.18,0,0,0-.14-.17,2.72,2.72,0,0,0-.82-.11c-1.07,0-1.92.62-1.92,2.34s.79,2.33,2,2.33a3.2,3.2,0,0,0,1.54-.4Z" transform="translate(-72 -149.16)"/><path class="cls-13" d="M270.71,158.5v-.66l.58-.07c.16,0,.22-.07.22-.24v-2.79c0-.89-.16-1.59-1-1.59a3.26,3.26,0,0,0-1.9.78v3.61c0,.19,0,.22.19.24l.67.08v.65h-2.75v-.66l.6-.07c.17,0,.19-.06.19-.24v-7c0-.13,0-.22-.16-.25l-.72-.23.11-.64h1.85V153a3.64,3.64,0,0,1,2.16-.79c1.28,0,1.85.83,1.85,2.18v3.13c0,.19,0,.22.19.24l.68.08v.65Z" transform="translate(-72 -149.16)"/><path class="cls-13" d="M274.19,155.39c0-1.88,1-3.18,3-3.18s2.84,1.31,2.84,3.11c0,2-.91,3.32-3,3.32S274.19,157.3,274.19,155.39Zm4.73,0c0-1.57-.58-2.27-1.74-2.27s-1.86.7-1.86,2.28.61,2.36,1.8,2.36S278.91,157,278.91,155.39Z" transform="translate(-72 -149.16)"/><path class="cls-13" d="M281,155.39c0-1.88,1-3.18,3-3.18s2.84,1.31,2.84,3.11c0,2-.91,3.32-3,3.32S281,157.3,281,155.39Zm4.73,0c0-1.57-.58-2.27-1.74-2.27s-1.86.7-1.86,2.28.61,2.36,1.8,2.36S285.73,157,285.73,155.39Z" transform="translate(-72 -149.16)"/><path class="cls-13" d="M287.7,158.5v-.66l.74-.07c.17,0,.19-.06.19-.24v-7c0-.13,0-.22-.16-.25l-.72-.23.11-.64h1.86v8.08c0,.19,0,.22.19.24l.72.08v.65Z" transform="translate(-72 -149.16)"/><path class="cls-13" d="M294.3,158.5v-.65l.76-.08c.17,0,.19-.06.19-.24V150.8c0-.18,0-.23-.19-.24l-.76-.08v-.66h6v2l-.82,0-.17-.92c0-.12-.07-.16-.2-.16h-2.73v3h3.15v.86h-3.15v3c0,.19,0,.22.19.24l1.76.1v.65Z" transform="translate(-72 -149.16)"/><path class="cls-13" d="M300.48,155.39c0-1.88,1-3.18,3-3.18s2.84,1.31,2.84,3.11c0,2-.91,3.32-3,3.32S300.48,157.3,300.48,155.39Zm4.73,0c0-1.57-.58-2.27-1.74-2.27s-1.86.7-1.86,2.28.61,2.36,1.8,2.36S305.21,157,305.21,155.39Z" transform="translate(-72 -149.16)"/><path class="cls-13" d="M312.24,158.5l-.1-.82h0a3.45,3.45,0,0,1-2.31,1c-1.32,0-1.73-.8-1.73-2.18v-3c0-.19,0-.24-.19-.28l-.62-.16.1-.65h1.81v3.87c0,1,.18,1.55.94,1.55a2.74,2.74,0,0,0,1.93-1V153.4c0-.19,0-.23-.19-.26l-.6-.16.1-.65h1.79v5.18c0,.18,0,.24.17.25l.64.08v.65Z" transform="translate(-72 -149.16)"/><path class="cls-13" d="M314.84,158.5v-.66l.6-.07c.17,0,.19-.06.19-.24v-4.08c0-.13,0-.22-.16-.25l-.68-.23.11-.64h1.57l.12.83h0a2.46,2.46,0,0,1,1.8-1,3.78,3.78,0,0,1,.86.11v1.81l-.85,0-.14-.83c0-.1,0-.12-.14-.12a2.5,2.5,0,0,0-1.43.76v3.61c0,.19,0,.23.19.24l1.1.1v.65Z" transform="translate(-72 -149.16)"/><path class="cls-13" d="M319.9,155.54v-1.07h3.25v1.07Z" transform="translate(-72 -149.16)"/><path class="cls-13" d="M324.28,158.5v-.65l1.14-.08c.17,0,.19-.06.19-.24v-2.39l-2.4-4.34a.37.37,0,0,0-.29-.2l-.54-.13.12-.65h2.69v.65l-.9.11,1.91,3.59,1.85-3.59-.89-.11.12-.65h2.51v.65l-.5.13a.47.47,0,0,0-.3.23l-2.27,4.28v2.41c0,.19,0,.22.19.24l1.2.1v.65Z" transform="translate(-72 -149.16)"/><path class="cls-13" d="M334.26,158.1a4.39,4.39,0,0,1-2.18.54c-2.17,0-2.88-1.43-2.88-3.21,0-2.19,1.22-3.21,2.73-3.21s2.47.79,2.47,2.87c0,.16,0,.4,0,.6h-4c0,1.21.53,2,1.83,2a3.45,3.45,0,0,0,1.73-.43Zm-.95-3.25c0-1.37-.65-1.76-1.38-1.76s-1.47.43-1.57,1.76Z" transform="translate(-72 -149.16)"/><path class="cls-13" d="M339.25,158.5l-.11-.78h0a3.06,3.06,0,0,1-2.17.94,1.49,1.49,0,0,1-1.69-1.64c0-1.2.74-1.76,2.18-1.88L339,155v-.64c0-.88-.17-1.31-1.21-1.31-.73,0-1.26,0-1.27.92l-1-.11c0-1.48,1.37-1.64,2.31-1.64,1.7,0,2.28.48,2.28,2.13v3.18c0,.19,0,.22.19.24l.61.08v.65Zm-.21-2.76-1.35.12c-1,.1-1.32.4-1.32,1s.28.91.84.91a3.12,3.12,0,0,0,1.83-.92Z" transform="translate(-72 -149.16)"/><path class="cls-13" d="M341.69,158.5v-.66l.6-.07c.17,0,.19-.06.19-.24v-4.08c0-.13,0-.22-.16-.25l-.68-.23.11-.64h1.57l.12.83h0a2.46,2.46,0,0,1,1.8-1,3.78,3.78,0,0,1,.86.11v1.81l-.85,0-.14-.83c0-.1,0-.12-.14-.12a2.5,2.5,0,0,0-1.43.76v3.61c0,.19,0,.23.19.24l1.1.1v.65Z" transform="translate(-72 -149.16)"/><path class="cls-13" d="M354.57,158.5v-.65l1-.11-.65-1.9h-3.35l-.64,1.9,1,.11v.65h-2.76v-.64l.52-.13c.19,0,.25-.08.3-.23l2.64-7.69H354l2.69,7.7c0,.14.14.17.29.2l.54.13v.65Zm-1.32-7.75L351.84,155h2.81Z" transform="translate(-72 -149.16)"/><path class="cls-13" d="M362.58,158.5l-.1-.79h0a2.91,2.91,0,0,1-2.11.95c-1.37,0-2.27-.89-2.27-3.09,0-2.36,1.07-3.33,2.51-3.33a3.18,3.18,0,0,1,1.83.58v-2.24a.23.23,0,0,0-.16-.24l-.72-.23.11-.64h1.84v8.08c0,.19,0,.22.19.24l.61.08v.65Zm-.2-4.74a2.8,2.8,0,0,0-1.64-.65c-1.13,0-1.57,1-1.57,2.41,0,1.67.56,2.21,1.4,2.21a2.69,2.69,0,0,0,1.81-1Z" transform="translate(-72 -149.16)"/><path class="cls-13" d="M365.88,153.45c0-.16,0-.22-.16-.25L365,153l.11-.64H367v6.94c0,1.28-.55,1.89-1.73,1.89a2.84,2.84,0,0,1-1.68-.5L364,160a1.94,1.94,0,0,0,1.08.35c.64,0,.8-.4.8-1.25Zm.4-2.45a.76.76,0,1,1,.78-.77A.7.7,0,0,1,366.27,151Z" transform="translate(-72 -149.16)"/><path class="cls-13" d="M373.44,158.5l-.1-.82h0a3.45,3.45,0,0,1-2.31,1c-1.32,0-1.73-.8-1.73-2.18v-3c0-.19,0-.24-.19-.28l-.62-.16.1-.65h1.81v3.87c0,1,.18,1.55.94,1.55a2.74,2.74,0,0,0,1.93-1V153.4c0-.19,0-.23-.19-.26l-.6-.16.1-.65h1.79v5.18c0,.18,0,.24.17.25l.64.08v.65Z" transform="translate(-72 -149.16)"/><path class="cls-13" d="M379.64,154l-.14-.74c0-.08,0-.13-.12-.16a3.12,3.12,0,0,0-.94-.13c-.88,0-1.27.38-1.27.9,0,.68.72.83,1.5,1,.94.24,2,.53,2,1.82s-1.16,1.87-2.43,1.87a5.74,5.74,0,0,1-2.17-.41v-1.6l.8,0,.14.83a.18.18,0,0,0,.14.17,3.38,3.38,0,0,0,1.17.19c.8,0,1.32-.3,1.32-.95s-.68-.89-1.45-1.07c-.94-.22-2-.46-2-1.77s1.15-1.87,2.39-1.87a5.54,5.54,0,0,1,1.89.34v1.55Z" transform="translate(-72 -149.16)"/><path class="cls-13" d="M385.65,158.27a4.54,4.54,0,0,1-1.67.37c-1.15,0-1.67-.54-1.67-1.62v-3.74c0-.07,0-.12-.1-.12h-.87v-.7c.94-.12,1.2-.49,1.36-1.71h.71v1.46c0,.07,0,.12.1.12h1.76v.83h-1.86v3.54c0,.76.18,1,.86,1a3.14,3.14,0,0,0,1.12-.24Z" transform="translate(-72 -149.16)"/><path class="cls-13" d="M391.13,158.1a4.39,4.39,0,0,1-2.18.54c-2.17,0-2.88-1.43-2.88-3.21,0-2.19,1.22-3.21,2.73-3.21s2.47.79,2.47,2.87c0,.16,0,.4,0,.6h-4c0,1.21.53,2,1.83,2a3.46,3.46,0,0,0,1.73-.43Zm-.95-3.25c0-1.37-.65-1.76-1.38-1.76s-1.48.43-1.57,1.76Z" transform="translate(-72 -149.16)"/><path class="cls-13" d="M396.8,158.5l-.1-.79h0a2.91,2.91,0,0,1-2.11.95c-1.37,0-2.27-.89-2.27-3.09,0-2.36,1.07-3.33,2.51-3.33a3.18,3.18,0,0,1,1.83.58v-2.24a.23.23,0,0,0-.16-.24l-.72-.23.11-.64h1.83v8.08c0,.19,0,.22.19.24l.61.08v.65Zm-.2-4.74a2.79,2.79,0,0,0-1.64-.65c-1.13,0-1.57,1-1.57,2.41,0,1.67.56,2.21,1.4,2.21a2.69,2.69,0,0,0,1.81-1Z" transform="translate(-72 -149.16)"/><path class="cls-13" d="M409.05,158a5.63,5.63,0,0,1-2.88.64c-2.93,0-4.1-1.85-4.1-4.49s1.43-4.5,4.31-4.5a5.08,5.08,0,0,1,2.65.65v1.92l-.82,0L408,151c0-.11,0-.18-.16-.22a4.8,4.8,0,0,0-1.52-.26c-1.88,0-3.11,1.25-3.11,3.6s1.15,3.59,3,3.59a4.79,4.79,0,0,0,1.68-.25.22.22,0,0,0,.17-.22l.19-1.08h.77Z" transform="translate(-72 -149.16)"/><path class="cls-13" d="M410.13,155.39c0-1.88,1-3.18,3-3.18s2.84,1.31,2.84,3.11c0,2-.91,3.32-3,3.32S410.13,157.3,410.13,155.39Zm4.73,0c0-1.57-.58-2.27-1.74-2.27s-1.86.7-1.86,2.28.61,2.36,1.8,2.36S414.86,157,414.86,155.39Z" transform="translate(-72 -149.16)"/><path class="cls-13" d="M421,158.5v-.66l.58-.07c.16,0,.22-.07.22-.24v-2.79c0-.89-.16-1.59-1-1.59a3.26,3.26,0,0,0-1.89.78v3.61c0,.19,0,.22.19.24l.67.08v.65H417v-.66l.6-.07c.17,0,.19-.06.19-.24v-7c0-.13,0-.22-.16-.25l-.72-.23.11-.64h1.85V153a3.64,3.64,0,0,1,2.16-.79c1.28,0,1.85.83,1.85,2.18v3.13c0,.19,0,.22.19.24l.68.08v.65Z" transform="translate(-72 -149.16)"/><path class="cls-13" d="M424.45,155.39c0-1.88,1-3.18,3-3.18s2.84,1.31,2.84,3.11c0,2-.91,3.32-3,3.32S424.45,157.3,424.45,155.39Zm4.73,0c0-1.57-.58-2.27-1.74-2.27s-1.86.7-1.86,2.28.61,2.36,1.8,2.36S429.18,157,429.18,155.39Z" transform="translate(-72 -149.16)"/><path class="cls-13" d="M431.29,158.5v-.66l.6-.07c.17,0,.19-.06.19-.24v-4.08c0-.13,0-.22-.16-.25l-.68-.23.11-.64h1.57l.12.83h0a2.45,2.45,0,0,1,1.8-1,3.8,3.8,0,0,1,.86.11v1.81l-.85,0-.14-.83c0-.1,0-.12-.14-.12a2.5,2.5,0,0,0-1.43.76v3.61c0,.19,0,.23.19.24l1.1.1v.65Z" transform="translate(-72 -149.16)"/><path class="cls-13" d="M440.66,158.27a4.54,4.54,0,0,1-1.67.37c-1.15,0-1.67-.54-1.67-1.62v-3.74c0-.07,0-.12-.1-.12h-.88v-.7c.94-.12,1.2-.49,1.36-1.71h.71v1.46c0,.07,0,.12.1.12h1.76v.83h-1.86v3.54c0,.76.18,1,.86,1a3.14,3.14,0,0,0,1.12-.24Z" transform="translate(-72 -149.16)"/><path class="cls-13" d="M451.75,155.17c-.14,0-.19,0-.19.2v2.78a7.29,7.29,0,0,1-2.88.49c-3.24,0-4.44-1.93-4.44-4.55s1.43-4.44,4.32-4.44a5.14,5.14,0,0,1,2.66.65v1.91l-.82-.06-.19-1.12c0-.11,0-.18-.17-.22a5,5,0,0,0-1.56-.26c-1.89,0-3.09,1.29-3.09,3.54s1.18,3.65,3.43,3.65a7.29,7.29,0,0,0,1.48-.18c.11,0,.17-.06.17-.2v-2.12h-1.63l.13-.78h3.29v.66Z" transform="translate(-72 -149.16)"/><path class="cls-13" d="M453,158.5v-.66l.6-.07c.17,0,.19-.06.19-.24v-4.08c0-.13,0-.22-.16-.25L453,153l.11-.64h1.57l.12.83h0a2.45,2.45,0,0,1,1.8-1,3.8,3.8,0,0,1,.86.11v1.81l-.85,0-.14-.83c0-.1,0-.12-.14-.12a2.5,2.5,0,0,0-1.43.76v3.61c0,.19,0,.23.19.24l1.1.1v.65Z" transform="translate(-72 -149.16)"/><path class="cls-13" d="M462,158.5l-.11-.78h0a3.06,3.06,0,0,1-2.17.94A1.49,1.49,0,0,1,458,157c0-1.2.74-1.76,2.18-1.88l1.62-.13v-.64c0-.88-.17-1.31-1.21-1.31-.73,0-1.26,0-1.27.92l-1-.11c0-1.48,1.37-1.64,2.31-1.64,1.7,0,2.28.48,2.28,2.13v3.18c0,.19,0,.22.19.24l.61.08v.65Zm-.2-2.76-1.36.12c-1,.1-1.32.4-1.32,1s.28.91.84.91a3.13,3.13,0,0,0,1.83-.92Z" transform="translate(-72 -149.16)"/><path class="cls-13" d="M469,158.5l-.1-.79h0a2.91,2.91,0,0,1-2.11.95c-1.37,0-2.27-.89-2.27-3.09,0-2.36,1.07-3.33,2.51-3.33a3.18,3.18,0,0,1,1.83.58v-2.24a.23.23,0,0,0-.16-.24l-.72-.23.11-.64h1.83v8.08c0,.19,0,.22.19.24l.61.08v.65Zm-.2-4.74a2.8,2.8,0,0,0-1.64-.65c-1.13,0-1.57,1-1.57,2.41,0,1.67.56,2.21,1.4,2.21a2.69,2.69,0,0,0,1.81-1Z" transform="translate(-72 -149.16)"/><path class="cls-13" d="M476.43,158.5l-.1-.82h0a3.45,3.45,0,0,1-2.31,1c-1.32,0-1.73-.8-1.73-2.18v-3c0-.19,0-.24-.19-.28l-.62-.16.1-.65h1.81v3.87c0,1,.18,1.55.94,1.55a2.74,2.74,0,0,0,1.93-1V153.4c0-.19,0-.23-.19-.26l-.6-.16.1-.65h1.79v5.18c0,.18,0,.24.17.25l.64.08v.65Z" transform="translate(-72 -149.16)"/><path class="cls-13" d="M483.09,158.5l-.11-.78h0a3.06,3.06,0,0,1-2.17.94,1.49,1.49,0,0,1-1.69-1.64c0-1.2.74-1.76,2.18-1.88l1.62-.13v-.64c0-.88-.17-1.31-1.21-1.31-.73,0-1.26,0-1.27.92l-1-.11c0-1.48,1.37-1.64,2.31-1.64,1.7,0,2.28.48,2.28,2.13v3.18c0,.19,0,.22.19.24l.61.08v.65Zm-.2-2.76-1.36.12c-1,.1-1.32.4-1.32,1s.28.91.84.91a3.13,3.13,0,0,0,1.83-.92Z" transform="translate(-72 -149.16)"/><path class="cls-13" d="M489.51,158.27a4.54,4.54,0,0,1-1.67.37c-1.15,0-1.67-.54-1.67-1.62v-3.74c0-.07,0-.12-.1-.12h-.88v-.7c.94-.12,1.2-.49,1.36-1.71h.71v1.46c0,.07,0,.12.1.12h1.76v.83h-1.86v3.54c0,.76.18,1,.86,1a3.14,3.14,0,0,0,1.12-.24Z" transform="translate(-72 -149.16)"/><path class="cls-13" d="M490.16,158.5v-.66l.79-.07c.17,0,.19-.06.19-.24v-4.08c0-.13,0-.22-.16-.25l-.68-.23.11-.64h1.82v5.19c0,.19,0,.22.19.24l.77.08v.65Zm1.37-7.5a.76.76,0,1,1,0-1.52.76.76,0,1,1,0,1.52Z" transform="translate(-72 -149.16)"/><path class="cls-13" d="M493.77,155.39c0-1.88,1-3.18,3-3.18s2.84,1.31,2.84,3.11c0,2-.91,3.32-3,3.32S493.77,157.3,493.77,155.39Zm4.73,0c0-1.57-.58-2.27-1.74-2.27s-1.86.7-1.86,2.28.61,2.36,1.8,2.36S498.5,157,498.5,155.39Z" transform="translate(-72 -149.16)"/><path class="cls-13" d="M504.61,158.5v-.66l.58-.07c.16,0,.22-.07.22-.24v-2.84c0-.78-.16-1.54-1-1.54a3,3,0,0,0-1.86.77v3.61c0,.19,0,.22.19.24l.67.08v.65h-2.75v-.66l.6-.07c.17,0,.19-.06.19-.24v-4.08c0-.13,0-.22-.16-.25l-.68-.23.11-.64h1.57l.1.71h0a3.85,3.85,0,0,1,2.22-.84c1.38,0,1.9.89,1.9,2.19v3.12c0,.19,0,.22.19.24l.68.08v.65Z" transform="translate(-72 -149.16)"/><path class="cls-13" d="M515.29,158.5v-.65l.95-.07-1-2.48c-.16-.38-.34-.5-.82-.5H513.1v2.72c0,.19,0,.22.19.24l.79.1v.65h-3v-.65l.76-.08c.17,0,.19-.06.19-.24V150.8c0-.18,0-.23-.19-.24l-.76-.08v-.66h3.67c2.16,0,2.71,1.2,2.71,2.35a2.31,2.31,0,0,1-1.67,2.34c.4.18.49.43.67.88l.82,2.1a.39.39,0,0,0,.37.28l.73.11v.64Zm-1.08-4.57c1.14,0,2.09-.34,2.09-1.73,0-1.22-.79-1.51-2.25-1.51h-.94v3.24Z" transform="translate(-72 -149.16)"/><path class="cls-13" d="M523.05,158.5l-.11-.78h0a3.06,3.06,0,0,1-2.17.94A1.49,1.49,0,0,1,519,157c0-1.2.74-1.76,2.18-1.88l1.62-.13v-.64c0-.88-.17-1.31-1.21-1.31-.73,0-1.26,0-1.27.92l-1-.11c0-1.48,1.37-1.64,2.31-1.64,1.7,0,2.28.48,2.28,2.13v3.18c0,.19,0,.22.19.24l.61.08v.65Zm-.2-2.76-1.36.12c-1,.1-1.32.4-1.32,1s.28.91.84.91a3.13,3.13,0,0,0,1.83-.92Z" transform="translate(-72 -149.16)"/><path class="cls-13" d="M529.47,158.27a4.54,4.54,0,0,1-1.67.37c-1.15,0-1.67-.54-1.67-1.62v-3.74c0-.07,0-.12-.1-.12h-.88v-.7c.94-.12,1.2-.49,1.36-1.71h.71v1.46c0,.07,0,.12.1.12h1.76v.83h-1.86v3.54c0,.76.18,1,.86,1a3.14,3.14,0,0,0,1.12-.24Z" transform="translate(-72 -149.16)"/><path class="cls-13" d="M534.94,158.1a4.39,4.39,0,0,1-2.18.54c-2.17,0-2.88-1.43-2.88-3.21,0-2.19,1.22-3.21,2.73-3.21s2.47.79,2.47,2.87c0,.16,0,.4,0,.6h-4c0,1.21.53,2,1.83,2a3.45,3.45,0,0,0,1.73-.43Zm-.95-3.25c0-1.37-.65-1.76-1.38-1.76s-1.47.43-1.57,1.76Z" transform="translate(-72 -149.16)"/><path class="cls-13" d="M536,159.71l.36-1.26a.09.09,0,0,0-.06-.12l-.42-.17.26-1c.77,0,1.31.12,1.31.77a1.56,1.56,0,0,1-.19.64l-.7,1.34Z" transform="translate(-72 -149.16)"/><path class="cls-13" d="M168.79,174.5a11.87,11.87,0,0,0,.14-1.71v-6.22c0-.13,0-.22-.16-.25l-.71-.23.11-.64H170v3.47a3.71,3.71,0,0,1,2.05-.7c1.34,0,2.27.86,2.27,3,0,2.47-1,3.45-2.53,3.45a2.61,2.61,0,0,1-1.86-.74l0,0-.06.58ZM170,173a2.6,2.6,0,0,0,1.64.78c1.13,0,1.57-.94,1.57-2.46s-.6-2.16-1.45-2.16a3.19,3.19,0,0,0-1.76.67Z" transform="translate(-72 -149.16)"/><path class="cls-13" d="M175.86,177v-.66l.86-.11c.14,0,.19-.08.26-.25l.7-1.59-2.16-5.11c-.06-.14-.11-.17-.25-.2l-.49-.12.14-.66h2.48V169l-.79.1,1.59,4,1.67-4-.82-.1.13-.66h2.38V169l-.41.06a.35.35,0,0,0-.3.2l-2.91,7,1.16.12V177Z" transform="translate(-72 -149.16)"/><path class="cls-13" d="M189.29,174.5v-.65l.95-.07-1-2.48c-.16-.38-.34-.5-.82-.5H187.1v2.72c0,.19,0,.22.19.24l.79.1v.65h-3v-.65l.76-.08c.17,0,.19-.06.19-.24V166.8c0-.18,0-.23-.19-.24l-.76-.08v-.66h3.67c2.16,0,2.71,1.2,2.71,2.35a2.31,2.31,0,0,1-1.67,2.34c.4.18.49.43.67.88l.82,2.1a.4.4,0,0,0,.37.28l.73.11v.64Zm-1.08-4.57c1.14,0,2.09-.34,2.09-1.73,0-1.22-.79-1.51-2.25-1.51h-.94v3.24Z" transform="translate(-72 -149.16)"/><path class="cls-13" d="M197.05,174.5l-.11-.78h0a3.06,3.06,0,0,1-2.17.94A1.49,1.49,0,0,1,193,173c0-1.2.74-1.76,2.18-1.88l1.62-.13v-.64c0-.88-.17-1.31-1.21-1.31-.73,0-1.26,0-1.27.92l-1-.11c0-1.48,1.37-1.64,2.31-1.64,1.7,0,2.28.48,2.28,2.13v3.18c0,.19,0,.22.19.24l.61.08v.65Zm-.2-2.76-1.35.12c-1,.1-1.32.4-1.32,1s.28.91.84.91a3.13,3.13,0,0,0,1.83-.92Z" transform="translate(-72 -149.16)"/><path class="cls-13" d="M204.42,174.14a4,4,0,0,1-2.05.5c-2.05,0-2.93-1.26-2.93-3.15,0-2.28,1.32-3.27,3.14-3.27a4.39,4.39,0,0,1,1.82.37v1.6l-.8,0-.14-.79a.18.18,0,0,0-.14-.17,2.72,2.72,0,0,0-.82-.11c-1.07,0-1.92.62-1.92,2.34s.79,2.33,2,2.33a3.2,3.2,0,0,0,1.54-.4Z" transform="translate(-72 -149.16)"/><path class="cls-13" d="M210.2,174.1a4.39,4.39,0,0,1-2.18.54c-2.17,0-2.88-1.43-2.88-3.21,0-2.19,1.22-3.21,2.73-3.21s2.47.79,2.47,2.87c0,.16,0,.4,0,.6h-4c0,1.21.53,2,1.83,2a3.45,3.45,0,0,0,1.73-.43Zm-.95-3.25c0-1.37-.65-1.76-1.38-1.76s-1.48.43-1.57,1.76Z" transform="translate(-72 -149.16)"/><path class="cls-13" d="M210.88,175.6l3.37-10.16h1l-3.36,10.16Z" transform="translate(-72 -149.16)"/><path class="cls-13" d="M216,174.5v-.65l.76-.08c.17,0,.19-.06.19-.24V166.8c0-.18,0-.23-.19-.24l-.76-.08v-.66h6v2l-.82,0-.17-.92c0-.12-.07-.16-.2-.16H218.1v3h3.2v.86h-3.2v3.09h3c.13,0,.17,0,.19-.13l.19-1h.8v2Z" transform="translate(-72 -149.16)"/><path class="cls-13" d="M227.34,174.27a4.54,4.54,0,0,1-1.67.37c-1.15,0-1.67-.54-1.67-1.62v-3.74c0-.07,0-.12-.1-.12H223v-.7c.94-.12,1.2-.49,1.36-1.71h.71v1.46c0,.07,0,.12.1.12H227v.83H225.1v3.54c0,.76.18,1,.86,1a3.14,3.14,0,0,0,1.12-.24Z" transform="translate(-72 -149.16)"/><path class="cls-13" d="M232.17,174.5v-.66l.58-.07c.16,0,.22-.07.22-.24v-2.79c0-.89-.16-1.59-1-1.59a3.26,3.26,0,0,0-1.9.78v3.61c0,.19,0,.22.19.24l.67.08v.65h-2.75v-.66l.6-.07c.17,0,.19-.06.19-.24v-7c0-.13,0-.22-.16-.25l-.72-.23.11-.64h1.85V169a3.64,3.64,0,0,1,2.16-.79c1.28,0,1.85.83,1.85,2.18v3.13c0,.19,0,.22.19.24l.68.08v.65Z" transform="translate(-72 -149.16)"/><path class="cls-13" d="M239.73,174.5v-.66l.58-.07c.16,0,.22-.07.22-.24v-2.84c0-.78-.16-1.54-1-1.54a3,3,0,0,0-1.86.77v3.61c0,.19,0,.22.19.24l.67.08v.65h-2.75v-.66l.6-.07c.17,0,.19-.06.19-.24v-4.08c0-.13,0-.22-.16-.25l-.68-.23.11-.64h1.57l.1.71h0a3.85,3.85,0,0,1,2.22-.84c1.38,0,1.9.89,1.9,2.19v3.12c0,.19,0,.22.19.24l.68.08v.65Z" transform="translate(-72 -149.16)"/><path class="cls-13" d="M243.11,174.5v-.66l.79-.07c.17,0,.19-.06.19-.24v-4.08c0-.13,0-.22-.16-.25l-.68-.23.11-.64h1.82v5.19c0,.19,0,.22.19.24l.77.08v.65Zm1.37-7.5a.76.76,0,1,1,0-1.52.76.76,0,1,1,0,1.52Z" transform="translate(-72 -149.16)"/><path class="cls-13" d="M251.7,174.14a4,4,0,0,1-2.05.5c-2.05,0-2.93-1.26-2.93-3.15,0-2.28,1.32-3.27,3.14-3.27a4.39,4.39,0,0,1,1.82.37v1.6l-.8,0-.14-.79a.18.18,0,0,0-.14-.17,2.72,2.72,0,0,0-.82-.11c-1.07,0-1.92.62-1.92,2.34s.79,2.33,2,2.33a3.2,3.2,0,0,0,1.54-.4Z" transform="translate(-72 -149.16)"/><path class="cls-13" d="M252.38,174.5v-.66l.79-.07c.17,0,.19-.06.19-.24v-4.08c0-.13,0-.22-.16-.25l-.68-.23.11-.64h1.82v5.19c0,.19,0,.22.19.24l.77.08v.65Zm1.37-7.5a.76.76,0,1,1,0-1.52.76.76,0,1,1,0,1.52Z" transform="translate(-72 -149.16)"/><path class="cls-13" d="M260.24,174.27a4.54,4.54,0,0,1-1.67.37c-1.15,0-1.67-.54-1.67-1.62v-3.74c0-.07,0-.12-.1-.12h-.88v-.7c.94-.12,1.2-.49,1.36-1.71H258v1.46c0,.07,0,.12.1.12h1.76v.83H258v3.54c0,.76.18,1,.86,1a3.14,3.14,0,0,0,1.12-.24Z" transform="translate(-72 -149.16)"/><path class="cls-13" d="M261.46,177v-.66l.86-.11c.14,0,.19-.08.26-.25l.7-1.59-2.16-5.11c-.06-.14-.11-.17-.25-.2l-.49-.12.14-.66H263V169l-.79.1,1.59,4,1.67-4-.82-.1.13-.66h2.38V169l-.41.06a.35.35,0,0,0-.3.2l-2.91,7,1.16.12V177Z" transform="translate(-72 -149.16)"/><path class="cls-13" d="M274.49,174.5l-.11-.78h0a3.06,3.06,0,0,1-2.17.94,1.49,1.49,0,0,1-1.69-1.64c0-1.2.74-1.76,2.18-1.88l1.62-.13v-.64c0-.88-.17-1.31-1.21-1.31-.73,0-1.26,0-1.27.92l-1-.11c0-1.48,1.37-1.64,2.31-1.64,1.7,0,2.28.48,2.28,2.13v3.18c0,.19,0,.22.19.24l.61.08v.65Zm-.2-2.76-1.35.12c-1,.1-1.32.4-1.32,1s.28.91.84.91a3.13,3.13,0,0,0,1.83-.92Z" transform="translate(-72 -149.16)"/><path class="cls-13" d="M280.92,174.5v-.66l.58-.07c.16,0,.22-.07.22-.24v-2.84c0-.78-.16-1.54-1-1.54a3,3,0,0,0-1.86.77v3.61c0,.19,0,.22.19.24l.67.08v.65h-2.75v-.66l.6-.07c.17,0,.19-.06.19-.24v-4.08c0-.13,0-.22-.16-.25l-.68-.23.11-.64h1.57l.1.71h0a3.85,3.85,0,0,1,2.22-.84c1.38,0,1.9.89,1.9,2.19v3.12c0,.19,0,.22.19.24l.68.08v.65Z" transform="translate(-72 -149.16)"/><path class="cls-13" d="M289.08,174.5l-.1-.79h0a2.91,2.91,0,0,1-2.11.95c-1.37,0-2.27-.89-2.27-3.09,0-2.36,1.07-3.33,2.51-3.33a3.18,3.18,0,0,1,1.83.58v-2.24a.23.23,0,0,0-.16-.24l-.72-.23.11-.64H290v8.08c0,.19,0,.22.19.24l.61.08v.65Zm-.2-4.74a2.8,2.8,0,0,0-1.64-.65c-1.13,0-1.57,1-1.57,2.41,0,1.67.56,2.21,1.4,2.21a2.69,2.69,0,0,0,1.81-1Z" transform="translate(-72 -149.16)"/><path class="cls-13" d="M299,168l-.18-1c0-.17-.07-.22-.13-.25a2.39,2.39,0,0,0-1.14-.2c-1.24,0-1.83.54-1.83,1.39s.86,1.28,1.82,1.58c1.2.37,2.55.77,2.55,2.57s-1.46,2.53-3.18,2.53a6.93,6.93,0,0,1-2.52-.46v-2h.8l.23,1.06a.29.29,0,0,0,.24.26,4.18,4.18,0,0,0,1.34.2c1.22,0,2-.47,2-1.51s-.83-1.37-1.76-1.64c-1.21-.36-2.61-.67-2.61-2.48s1.34-2.45,3-2.45a6.33,6.33,0,0,1,2.23.42v2Z" transform="translate(-72 -149.16)"/><path class="cls-13" d="M306.26,174.1a4.39,4.39,0,0,1-2.18.54c-2.17,0-2.88-1.43-2.88-3.21,0-2.19,1.22-3.21,2.73-3.21s2.47.79,2.47,2.87c0,.16,0,.4,0,.6h-4c0,1.21.53,2,1.84,2a3.45,3.45,0,0,0,1.73-.43Zm-.95-3.25c0-1.37-.65-1.76-1.38-1.76s-1.48.43-1.57,1.76Z" transform="translate(-72 -149.16)"/><path class="cls-13" d="M307.21,174.5v-.66l.74-.07c.17,0,.19-.06.19-.24v-7c0-.13,0-.22-.16-.25l-.72-.23.11-.64h1.86v8.08c0,.19,0,.22.19.24l.72.08v.65Z" transform="translate(-72 -149.16)"/><path class="cls-13" d="M315.84,174.1a4.39,4.39,0,0,1-2.18.54c-2.17,0-2.88-1.43-2.88-3.21,0-2.19,1.22-3.21,2.73-3.21s2.47.79,2.47,2.87c0,.16,0,.4,0,.6h-4c0,1.21.53,2,1.83,2a3.45,3.45,0,0,0,1.73-.43Zm-.95-3.25c0-1.37-.65-1.76-1.38-1.76s-1.47.43-1.57,1.76Z" transform="translate(-72 -149.16)"/><path class="cls-13" d="M321.87,174.14a4,4,0,0,1-2.05.5c-2.05,0-2.93-1.26-2.93-3.15,0-2.28,1.32-3.27,3.14-3.27a4.39,4.39,0,0,1,1.82.37v1.6l-.8,0-.14-.79a.18.18,0,0,0-.14-.17,2.72,2.72,0,0,0-.82-.11c-1.07,0-1.92.62-1.92,2.34s.79,2.33,2,2.33a3.2,3.2,0,0,0,1.54-.4Z" transform="translate(-72 -149.16)"/><path class="cls-13" d="M326.85,174.27a4.54,4.54,0,0,1-1.67.37c-1.15,0-1.67-.54-1.67-1.62v-3.74c0-.07,0-.12-.1-.12h-.88v-.7c.94-.12,1.2-.49,1.36-1.71h.71v1.46c0,.07,0,.12.1.12h1.76v.83h-1.86v3.54c0,.76.18,1,.86,1a3.14,3.14,0,0,0,1.12-.24Z" transform="translate(-72 -149.16)"/><path class="cls-13" d="M332.32,174.1a4.38,4.38,0,0,1-2.18.54c-2.17,0-2.88-1.43-2.88-3.21,0-2.19,1.22-3.21,2.73-3.21s2.47.79,2.47,2.87c0,.16,0,.4,0,.6h-4c0,1.21.53,2,1.83,2a3.44,3.44,0,0,0,1.73-.43Zm-.95-3.25c0-1.37-.65-1.76-1.38-1.76s-1.47.43-1.57,1.76Z" transform="translate(-72 -149.16)"/><path class="cls-13" d="M338,174.5l-.1-.79h0a2.91,2.91,0,0,1-2.11.95c-1.37,0-2.27-.89-2.27-3.09,0-2.36,1.07-3.33,2.51-3.33a3.18,3.18,0,0,1,1.83.58v-2.24a.23.23,0,0,0-.16-.24l-.72-.23.11-.64h1.84v8.08c0,.19,0,.22.19.24l.61.08v.65Zm-.2-4.74a2.8,2.8,0,0,0-1.64-.65c-1.13,0-1.57,1-1.57,2.41,0,1.67.56,2.21,1.4,2.21a2.69,2.69,0,0,0,1.81-1Z" transform="translate(-72 -149.16)"/><path class="cls-13" d="M343.43,174.5v-.65l.76-.08c.17,0,.19-.06.19-.24V166.8c0-.18,0-.23-.19-.24l-.76-.08v-.66H347c3,0,4.31,1.62,4.31,4.21s-1.4,4.47-4.51,4.47Zm3.37-.88c2.29,0,3.38-1.3,3.38-3.44,0-2.67-1.2-3.5-3.31-3.5h-1.39v6.94Z" transform="translate(-72 -149.16)"/><path class="cls-13" d="M357.44,174.1a4.39,4.39,0,0,1-2.18.54c-2.17,0-2.88-1.43-2.88-3.21,0-2.19,1.22-3.21,2.73-3.21s2.47.79,2.47,2.87c0,.16,0,.4,0,.6h-4c0,1.21.53,2,1.83,2a3.45,3.45,0,0,0,1.73-.43Zm-.95-3.25c0-1.37-.65-1.76-1.38-1.76s-1.47.43-1.57,1.76Z" transform="translate(-72 -149.16)"/><path class="cls-13" d="M365.91,174.5v-.66l.58-.07c.16,0,.22-.07.22-.24v-2.89c0-.76-.17-1.48-1-1.48a2.82,2.82,0,0,0-1.58.59,6.68,6.68,0,0,1,0,.73v3c0,.19,0,.22.19.24l.59.08v.65h-2.66v-.66l.58-.07c.16,0,.22-.07.22-.24v-2.9c0-.68,0-1.46-.91-1.46a2.93,2.93,0,0,0-1.71.74v3.62c0,.19,0,.22.19.24l.65.08v.65h-2.72v-.66l.6-.07c.17,0,.19-.06.19-.24v-4.08c0-.13,0-.22-.16-.25l-.68-.23.11-.64h1.57l.1.71h0a3.24,3.24,0,0,1,2.12-.84,1.59,1.59,0,0,1,1.48.77,3.59,3.59,0,0,1,2.12-.77c1.37,0,1.77.84,1.77,2.23v3.08c0,.19,0,.22.19.24l.68.08v.65Z" transform="translate(-72 -149.16)"/><path class="cls-13" d="M369.39,171.39c0-1.88,1-3.18,3-3.18s2.84,1.31,2.84,3.11c0,2-.91,3.32-3,3.32S369.39,173.3,369.39,171.39Zm4.73,0c0-1.57-.58-2.27-1.74-2.27s-1.86.7-1.86,2.28.61,2.36,1.8,2.36S374.12,173,374.12,171.39Z" transform="translate(-72 -149.16)"/><path class="cls-13" d="M381,169.19a1.86,1.86,0,0,1,.44,1.25,2.23,2.23,0,0,1-2.5,2.21,3,3,0,0,1-1-.14l-.54,1,1.47.08c2.16.12,3.13.23,3.13,1.64,0,1.19-1,1.93-3.11,1.93s-2.79-.56-2.79-1.48a1.88,1.88,0,0,1,.73-1.35.66.66,0,0,1-.53-.65,1.23,1.23,0,0,1,.26-.66c.19-.28.44-.58.66-.86a1.86,1.86,0,0,1-.9-1.7,2.3,2.3,0,0,1,2.6-2.28,4.16,4.16,0,0,1,1.07.12h2.13v.77Zm-3.3,5.37a1.56,1.56,0,0,0-.53,1c0,.65.67.79,1.85.8.64,0,1.86-.1,1.86-1,0-.56-.47-.61-1.25-.68Zm1.25-5.47a1.31,1.31,0,0,0-1.5,1.37c0,.71.41,1.28,1.46,1.28a1.32,1.32,0,0,0,1.46-1.36A1.25,1.25,0,0,0,379,169.09Z" transform="translate(-72 -149.16)"/><path class="cls-13" d="M382.76,174.5v-.66l.6-.07c.17,0,.19-.06.19-.24v-4.08c0-.13,0-.22-.16-.25l-.68-.23.11-.64h1.57l.12.83h0a2.46,2.46,0,0,1,1.8-1,3.79,3.79,0,0,1,.86.11v1.81l-.85,0-.14-.83c0-.1,0-.12-.14-.12a2.5,2.5,0,0,0-1.43.76v3.61c0,.19,0,.23.19.24l1.1.1v.65Z" transform="translate(-72 -149.16)"/><path class="cls-13" d="M391.71,174.5l-.11-.78h0a3.06,3.06,0,0,1-2.17.94,1.49,1.49,0,0,1-1.69-1.64c0-1.2.74-1.76,2.18-1.88l1.62-.13v-.64c0-.88-.17-1.31-1.21-1.31-.73,0-1.26,0-1.27.92l-1-.11c0-1.48,1.37-1.64,2.31-1.64,1.7,0,2.28.48,2.28,2.13v3.18c0,.19,0,.22.19.24l.61.08v.65Zm-.21-2.76-1.35.12c-1,.1-1.32.4-1.32,1s.28.91.84.91a3.12,3.12,0,0,0,1.83-.92Z" transform="translate(-72 -149.16)"/><path class="cls-13" d="M394.23,177v-.66l.49-.07c.17,0,.2-.06.2-.24v-6.62c0-.13,0-.22-.16-.25l-.68-.23.11-.64h1.58l.11.7h0a3.52,3.52,0,0,1,2.15-.83c1.34,0,2.25.86,2.25,3,0,1.8-.61,3.45-2.49,3.45A2.58,2.58,0,0,1,396,174v2.07c0,.19,0,.23.19.24l1.13.1V177ZM396,173a2.5,2.5,0,0,0,1.64.78c1.14,0,1.57-.95,1.57-2.46s-.64-2.15-1.38-2.15a3.2,3.2,0,0,0-1.83.74Z" transform="translate(-72 -149.16)"/><path class="cls-13" d="M405.4,174.5v-.66l.58-.07c.16,0,.21-.07.21-.24v-2.79c0-.89-.16-1.59-1-1.59a3.27,3.27,0,0,0-1.9.78v3.61c0,.19,0,.22.19.24l.67.08v.65h-2.75v-.66l.6-.07c.17,0,.19-.06.19-.24v-7c0-.13,0-.22-.16-.25l-.72-.23.11-.64h1.85V169a3.64,3.64,0,0,1,2.16-.79c1.28,0,1.85.83,1.85,2.18v3.13c0,.19,0,.22.19.24l.68.08v.65Z" transform="translate(-72 -149.16)"/><path class="cls-13" d="M408.78,174.5v-.66l.79-.07c.17,0,.19-.06.19-.24v-4.08c0-.13,0-.22-.16-.25l-.68-.23.11-.64h1.82v5.19c0,.19,0,.22.19.24l.77.08v.65Zm1.37-7.5a.76.76,0,1,1,0-1.52.76.76,0,1,1,0,1.52Z" transform="translate(-72 -149.16)"/><path class="cls-13" d="M417.37,174.14a4,4,0,0,1-2.05.5c-2.05,0-2.93-1.26-2.93-3.15,0-2.28,1.32-3.27,3.14-3.27a4.39,4.39,0,0,1,1.82.37v1.6l-.8,0-.14-.79a.17.17,0,0,0-.14-.17,2.73,2.73,0,0,0-.82-.11c-1.07,0-1.92.62-1.92,2.34s.79,2.33,2,2.33a3.2,3.2,0,0,0,1.54-.4Z" transform="translate(-72 -149.16)"/><path class="cls-13" d="M421.77,170l-.14-.74c0-.08,0-.13-.12-.16a3.11,3.11,0,0,0-.94-.13c-.87,0-1.27.38-1.27.9,0,.68.72.83,1.5,1,.94.24,2,.53,2,1.82s-1.16,1.87-2.44,1.87a5.74,5.74,0,0,1-2.17-.41v-1.6l.8,0,.14.83a.18.18,0,0,0,.14.17,3.39,3.39,0,0,0,1.18.19c.8,0,1.32-.3,1.32-.95s-.68-.89-1.45-1.07c-.94-.22-2-.46-2-1.77s1.15-1.87,2.39-1.87a5.54,5.54,0,0,1,1.89.34v1.55Z" transform="translate(-72 -149.16)"/><path class="cls-13" d="M424.45,169.92a.76.76,0,1,1,.79-.76A.69.69,0,0,1,424.45,169.92Zm0,4.73a.76.76,0,1,1,.79-.76A.69.69,0,0,1,424.45,174.64Z" transform="translate(-72 -149.16)"/><path class="cls-13" d="M428.71,174.5v-.74l1.64-1.61c1.16-1.13,1.94-1.81,1.94-2.65s-.37-1.14-1.34-1.14-1.32.22-1.32,1.25l-1-.11c0-1.73,1.26-2,2.4-2,1.73,0,2.37.78,2.37,1.89s-1,2.11-1.92,3l-1.37,1.3h2.5c.12,0,.16,0,.18-.13l.18-1h.79v2Z" transform="translate(-72 -149.16)"/><path class="cls-13" d="M434.6,171.09c0-1.93.7-3.6,3-3.6s2.84,1.57,2.84,3.44-.61,3.71-3,3.71S434.6,173,434.6,171.09Zm4.71-.07c0-1.64-.36-2.6-1.73-2.6s-1.85,1-1.85,2.73c0,1.56.4,2.6,1.79,2.6S439.32,172.7,439.32,171Z" transform="translate(-72 -149.16)"/><path class="cls-13" d="M441.3,174.5v-.66l1.21-.07c.17,0,.19-.06.19-.24v-4.71c0-.18,0-.22-.17-.25l-1.14-.22.08-.67h2.31v5.85c0,.19,0,.22.19.24l1.06.08v.65Z" transform="translate(-72 -149.16)"/><path class="cls-13" d="M449.06,171.36a1.71,1.71,0,0,1,1.58,1.86c0,1.4-1,2.28-2.65,2.28a3.38,3.38,0,0,1-2.59-1l.65-.7a2.5,2.5,0,0,0,1.93.82c.79,0,1.55-.3,1.55-1.39,0-.92-.61-1.37-1.64-1.37a4.48,4.48,0,0,0-.85.08v-.84l.7-.07c1.08-.1,1.61-.67,1.61-1.48s-.34-1.16-1.28-1.16-1.36.23-1.36,1.25l-1-.11c0-1.69,1.3-2,2.44-2,1.68,0,2.33.8,2.33,1.91a1.91,1.91,0,0,1-1.38,1.91Z" transform="translate(-72 -149.16)"/><path class="cls-13" d="M451.17,171.54v-.83h6v.83Z" transform="translate(-72 -149.16)"/><path class="cls-13" d="M457.44,174.5v-.74l1.64-1.61c1.16-1.13,1.94-1.81,1.94-2.65s-.37-1.14-1.34-1.14-1.32.22-1.32,1.25l-1-.11c0-1.73,1.26-2,2.4-2,1.73,0,2.37.78,2.37,1.89s-1,2.11-1.92,3l-1.37,1.3h2.5c.12,0,.16,0,.18-.13l.18-1h.79v2Z" transform="translate(-72 -149.16)"/><path class="cls-13" d="M463.33,171.09c0-1.93.7-3.6,3-3.6s2.84,1.57,2.84,3.44-.61,3.71-3,3.71S463.33,173,463.33,171.09ZM468,171c0-1.64-.36-2.6-1.73-2.6s-1.85,1-1.85,2.73c0,1.56.4,2.6,1.79,2.6S468,172.7,468,171Z" transform="translate(-72 -149.16)"/><path class="cls-13" d="M470,174.5v-.66l1.21-.07c.17,0,.19-.06.19-.24v-4.71c0-.18,0-.22-.17-.25l-1.14-.22.08-.67h2.31v5.85c0,.19,0,.22.19.24l1.06.08v.65Z" transform="translate(-72 -149.16)"/><path class="cls-13" d="M477.85,175.3v-1.75h-3.5v-.79l2.76-5.18.89.47-2.47,4.62h2.34v-2.43l1-.06v2.49H480v.89h-1.09v1.75Z" transform="translate(-72 -149.16)"/></g></svg>